<?xml version="1.0" standalone="no"?>
<!DOCTYPE svg PUBLIC "-//W3C//DTD SVG 1.1//EN" "http://www.w3.org/Graphics/SVG/1.1/DTD/svg11.dtd" >
<svg xmlns="http://www.w3.org/2000/svg" xmlns:xlink="http://www.w3.org/1999/xlink" version="1.1">
<metadata>
Created by FontForge 20201107 at Sat Jul 20 18:52:04 2024
 By 
Copyright  2020 by Connary Fagen. All rights reserved.
</metadata>
<defs>
<font id="FONTSPRINGDEMO-CriteriaCFThinRegular" horiz-adv-x="1224" >
  <font-face 
    font-family="FSP DEMO - Criteria CF Thin"
    font-weight="100"
    font-stretch="normal"
    units-per-em="2048"
    panose-1="0 0 2 0 0 0 0 0 0 0"
    ascent="1638"
    descent="-410"
    x-height="1065"
    cap-height="1434"
    bbox="61 -340 2367 1505"
    underline-thickness="102"
    underline-position="-204"
    unicode-range="U+0020-007E"
  />
<missing-glyph 
d="M207 403q-13 0 -19 -2v-200q4 -2 19 -2q37 0 50 25t13 77q0 54 -13 78t-50 24zM518 330v-49h-82v-78h96v-49h-155v297h155v-52h-96v-69h82zM203 150q-47 0 -74 4v292q61 9 76 9q67 0 96 -37.5t29 -116.5t-29.5 -115t-97.5 -36zM586 451h80l39 -164l38 164h82
q3 -45 13 -297h-60q0 108 -6 213l-41 -168h-55l-41 168h-2q-4 -140 -4 -213h-58q3 156 15 297zM987 150q-60 0 -84 35.5t-24 115.5q0 81 24 117.5t84 36.5t85.5 -37t25.5 -117q0 -79 -25.5 -115t-85.5 -36zM987 403q-29 0 -39 -23.5t-10 -78.5q0 -54 10 -78t39 -24
q30 0 40.5 24t10.5 78q0 55 -10 78.5t-41 23.5zM967 1016q49 0 79.5 -24.5t39 -51t8.5 -53.5q0 -43 -34.5 -72.5t-72.5 -34.5q-213 -23 -340 -147q3 8 9 22t25 53.5t39 75.5t50 80.5t59.5 76t66 53.5t71.5 22zM285 909q39 0 78 -21t69.5 -55t58.5 -74.5t48 -81.5t35 -75
t22 -55l8 -21q-117 148 -319 148q-49 0 -88 30t-39 76q0 53 33.5 91t93.5 38zM643 1214q38 -37 48.5 -102t-2.5 -131t-31.5 -126.5t-35.5 -98.5l-18 -39q20 191 -125 330q-35 35 -42 81.5t24 83.5q23 23 53 34t65 3.5t64 -35.5z" />
    <glyph glyph-name=".notdef" 
d="M207 403q-13 0 -19 -2v-200q4 -2 19 -2q37 0 50 25t13 77q0 54 -13 78t-50 24zM518 330v-49h-82v-78h96v-49h-155v297h155v-52h-96v-69h82zM203 150q-47 0 -74 4v292q61 9 76 9q67 0 96 -37.5t29 -116.5t-29.5 -115t-97.5 -36zM586 451h80l39 -164l38 164h82
q3 -45 13 -297h-60q0 108 -6 213l-41 -168h-55l-41 168h-2q-4 -140 -4 -213h-58q3 156 15 297zM987 150q-60 0 -84 35.5t-24 115.5q0 81 24 117.5t84 36.5t85.5 -37t25.5 -117q0 -79 -25.5 -115t-85.5 -36zM987 403q-29 0 -39 -23.5t-10 -78.5q0 -54 10 -78t39 -24
q30 0 40.5 24t10.5 78q0 55 -10 78.5t-41 23.5zM967 1016q49 0 79.5 -24.5t39 -51t8.5 -53.5q0 -43 -34.5 -72.5t-72.5 -34.5q-213 -23 -340 -147q3 8 9 22t25 53.5t39 75.5t50 80.5t59.5 76t66 53.5t71.5 22zM285 909q39 0 78 -21t69.5 -55t58.5 -74.5t48 -81.5t35 -75
t22 -55l8 -21q-117 148 -319 148q-49 0 -88 30t-39 76q0 53 33.5 91t93.5 38zM643 1214q38 -37 48.5 -102t-2.5 -131t-31.5 -126.5t-35.5 -98.5l-18 -39q20 191 -125 330q-35 35 -42 81.5t24 83.5q23 23 53 34t65 3.5t64 -35.5z" />
    <glyph glyph-name=".null" horiz-adv-x="0" 
 />
    <glyph glyph-name="nonmarkingreturn" horiz-adv-x="682" 
 />
    <glyph glyph-name="space" unicode=" " horiz-adv-x="389" 
 />
    <glyph glyph-name="exclam" unicode="!" 
d="M207 403q-13 0 -19 -2v-200q4 -2 19 -2q37 0 50 25t13 77q0 54 -13 78t-50 24zM518 330v-49h-82v-78h96v-49h-155v297h155v-52h-96v-69h82zM203 150q-47 0 -74 4v292q61 9 76 9q67 0 96 -37.5t29 -116.5t-29.5 -115t-97.5 -36zM586 451h80l39 -164l38 164h82
q3 -45 13 -297h-60q0 108 -6 213l-41 -168h-55l-41 168h-2q-4 -140 -4 -213h-58q3 156 15 297zM987 150q-60 0 -84 35.5t-24 115.5q0 81 24 117.5t84 36.5t85.5 -37t25.5 -117q0 -79 -25.5 -115t-85.5 -36zM987 403q-29 0 -39 -23.5t-10 -78.5q0 -54 10 -78t39 -24
q30 0 40.5 24t10.5 78q0 55 -10 78.5t-41 23.5zM967 1016q49 0 79.5 -24.5t39 -51t8.5 -53.5q0 -43 -34.5 -72.5t-72.5 -34.5q-213 -23 -340 -147q3 8 9 22t25 53.5t39 75.5t50 80.5t59.5 76t66 53.5t71.5 22zM285 909q39 0 78 -21t69.5 -55t58.5 -74.5t48 -81.5t35 -75
t22 -55l8 -21q-117 148 -319 148q-49 0 -88 30t-39 76q0 53 33.5 91t93.5 38zM643 1214q38 -37 48.5 -102t-2.5 -131t-31.5 -126.5t-35.5 -98.5l-18 -39q20 191 -125 330q-35 35 -42 81.5t24 83.5q23 23 53 34t65 3.5t64 -35.5z" />
    <glyph glyph-name="quotedbl" unicode="&#x22;" 
d="M207 403q-13 0 -19 -2v-200q4 -2 19 -2q37 0 50 25t13 77q0 54 -13 78t-50 24zM518 330v-49h-82v-78h96v-49h-155v297h155v-52h-96v-69h82zM203 150q-47 0 -74 4v292q61 9 76 9q67 0 96 -37.5t29 -116.5t-29.5 -115t-97.5 -36zM586 451h80l39 -164l38 164h82
q3 -45 13 -297h-60q0 108 -6 213l-41 -168h-55l-41 168h-2q-4 -140 -4 -213h-58q3 156 15 297zM987 150q-60 0 -84 35.5t-24 115.5q0 81 24 117.5t84 36.5t85.5 -37t25.5 -117q0 -79 -25.5 -115t-85.5 -36zM987 403q-29 0 -39 -23.5t-10 -78.5q0 -54 10 -78t39 -24
q30 0 40.5 24t10.5 78q0 55 -10 78.5t-41 23.5zM967 1016q49 0 79.5 -24.5t39 -51t8.5 -53.5q0 -43 -34.5 -72.5t-72.5 -34.5q-213 -23 -340 -147q3 8 9 22t25 53.5t39 75.5t50 80.5t59.5 76t66 53.5t71.5 22zM285 909q39 0 78 -21t69.5 -55t58.5 -74.5t48 -81.5t35 -75
t22 -55l8 -21q-117 148 -319 148q-49 0 -88 30t-39 76q0 53 33.5 91t93.5 38zM643 1214q38 -37 48.5 -102t-2.5 -131t-31.5 -126.5t-35.5 -98.5l-18 -39q20 191 -125 330q-35 35 -42 81.5t24 83.5q23 23 53 34t65 3.5t64 -35.5z" />
    <glyph glyph-name="numbersign" unicode="#" 
d="M207 403q-13 0 -19 -2v-200q4 -2 19 -2q37 0 50 25t13 77q0 54 -13 78t-50 24zM518 330v-49h-82v-78h96v-49h-155v297h155v-52h-96v-69h82zM203 150q-47 0 -74 4v292q61 9 76 9q67 0 96 -37.5t29 -116.5t-29.5 -115t-97.5 -36zM586 451h80l39 -164l38 164h82
q3 -45 13 -297h-60q0 108 -6 213l-41 -168h-55l-41 168h-2q-4 -140 -4 -213h-58q3 156 15 297zM987 150q-60 0 -84 35.5t-24 115.5q0 81 24 117.5t84 36.5t85.5 -37t25.5 -117q0 -79 -25.5 -115t-85.5 -36zM987 403q-29 0 -39 -23.5t-10 -78.5q0 -54 10 -78t39 -24
q30 0 40.5 24t10.5 78q0 55 -10 78.5t-41 23.5zM967 1016q49 0 79.5 -24.5t39 -51t8.5 -53.5q0 -43 -34.5 -72.5t-72.5 -34.5q-213 -23 -340 -147q3 8 9 22t25 53.5t39 75.5t50 80.5t59.5 76t66 53.5t71.5 22zM285 909q39 0 78 -21t69.5 -55t58.5 -74.5t48 -81.5t35 -75
t22 -55l8 -21q-117 148 -319 148q-49 0 -88 30t-39 76q0 53 33.5 91t93.5 38zM643 1214q38 -37 48.5 -102t-2.5 -131t-31.5 -126.5t-35.5 -98.5l-18 -39q20 191 -125 330q-35 35 -42 81.5t24 83.5q23 23 53 34t65 3.5t64 -35.5z" />
    <glyph glyph-name="dollar" unicode="$" 
d="M207 403q-13 0 -19 -2v-200q4 -2 19 -2q37 0 50 25t13 77q0 54 -13 78t-50 24zM518 330v-49h-82v-78h96v-49h-155v297h155v-52h-96v-69h82zM203 150q-47 0 -74 4v292q61 9 76 9q67 0 96 -37.5t29 -116.5t-29.5 -115t-97.5 -36zM586 451h80l39 -164l38 164h82
q3 -45 13 -297h-60q0 108 -6 213l-41 -168h-55l-41 168h-2q-4 -140 -4 -213h-58q3 156 15 297zM987 150q-60 0 -84 35.5t-24 115.5q0 81 24 117.5t84 36.5t85.5 -37t25.5 -117q0 -79 -25.5 -115t-85.5 -36zM987 403q-29 0 -39 -23.5t-10 -78.5q0 -54 10 -78t39 -24
q30 0 40.5 24t10.5 78q0 55 -10 78.5t-41 23.5zM967 1016q49 0 79.5 -24.5t39 -51t8.5 -53.5q0 -43 -34.5 -72.5t-72.5 -34.5q-213 -23 -340 -147q3 8 9 22t25 53.5t39 75.5t50 80.5t59.5 76t66 53.5t71.5 22zM285 909q39 0 78 -21t69.5 -55t58.5 -74.5t48 -81.5t35 -75
t22 -55l8 -21q-117 148 -319 148q-49 0 -88 30t-39 76q0 53 33.5 91t93.5 38zM643 1214q38 -37 48.5 -102t-2.5 -131t-31.5 -126.5t-35.5 -98.5l-18 -39q20 191 -125 330q-35 35 -42 81.5t24 83.5q23 23 53 34t65 3.5t64 -35.5z" />
    <glyph glyph-name="percent" unicode="%" 
d="M207 403q-13 0 -19 -2v-200q4 -2 19 -2q37 0 50 25t13 77q0 54 -13 78t-50 24zM518 330v-49h-82v-78h96v-49h-155v297h155v-52h-96v-69h82zM203 150q-47 0 -74 4v292q61 9 76 9q67 0 96 -37.5t29 -116.5t-29.5 -115t-97.5 -36zM586 451h80l39 -164l38 164h82
q3 -45 13 -297h-60q0 108 -6 213l-41 -168h-55l-41 168h-2q-4 -140 -4 -213h-58q3 156 15 297zM987 150q-60 0 -84 35.5t-24 115.5q0 81 24 117.5t84 36.5t85.5 -37t25.5 -117q0 -79 -25.5 -115t-85.5 -36zM987 403q-29 0 -39 -23.5t-10 -78.5q0 -54 10 -78t39 -24
q30 0 40.5 24t10.5 78q0 55 -10 78.5t-41 23.5zM967 1016q49 0 79.5 -24.5t39 -51t8.5 -53.5q0 -43 -34.5 -72.5t-72.5 -34.5q-213 -23 -340 -147q3 8 9 22t25 53.5t39 75.5t50 80.5t59.5 76t66 53.5t71.5 22zM285 909q39 0 78 -21t69.5 -55t58.5 -74.5t48 -81.5t35 -75
t22 -55l8 -21q-117 148 -319 148q-49 0 -88 30t-39 76q0 53 33.5 91t93.5 38zM643 1214q38 -37 48.5 -102t-2.5 -131t-31.5 -126.5t-35.5 -98.5l-18 -39q20 191 -125 330q-35 35 -42 81.5t24 83.5q23 23 53 34t65 3.5t64 -35.5z" />
    <glyph glyph-name="ampersand" unicode="&#x26;" 
d="M207 403q-13 0 -19 -2v-200q4 -2 19 -2q37 0 50 25t13 77q0 54 -13 78t-50 24zM518 330v-49h-82v-78h96v-49h-155v297h155v-52h-96v-69h82zM203 150q-47 0 -74 4v292q61 9 76 9q67 0 96 -37.5t29 -116.5t-29.5 -115t-97.5 -36zM586 451h80l39 -164l38 164h82
q3 -45 13 -297h-60q0 108 -6 213l-41 -168h-55l-41 168h-2q-4 -140 -4 -213h-58q3 156 15 297zM987 150q-60 0 -84 35.5t-24 115.5q0 81 24 117.5t84 36.5t85.5 -37t25.5 -117q0 -79 -25.5 -115t-85.5 -36zM987 403q-29 0 -39 -23.5t-10 -78.5q0 -54 10 -78t39 -24
q30 0 40.5 24t10.5 78q0 55 -10 78.5t-41 23.5zM967 1016q49 0 79.5 -24.5t39 -51t8.5 -53.5q0 -43 -34.5 -72.5t-72.5 -34.5q-213 -23 -340 -147q3 8 9 22t25 53.5t39 75.5t50 80.5t59.5 76t66 53.5t71.5 22zM285 909q39 0 78 -21t69.5 -55t58.5 -74.5t48 -81.5t35 -75
t22 -55l8 -21q-117 148 -319 148q-49 0 -88 30t-39 76q0 53 33.5 91t93.5 38zM643 1214q38 -37 48.5 -102t-2.5 -131t-31.5 -126.5t-35.5 -98.5l-18 -39q20 191 -125 330q-35 35 -42 81.5t24 83.5q23 23 53 34t65 3.5t64 -35.5z" />
    <glyph glyph-name="quotesingle" unicode="'" 
d="M207 403q-13 0 -19 -2v-200q4 -2 19 -2q37 0 50 25t13 77q0 54 -13 78t-50 24zM518 330v-49h-82v-78h96v-49h-155v297h155v-52h-96v-69h82zM203 150q-47 0 -74 4v292q61 9 76 9q67 0 96 -37.5t29 -116.5t-29.5 -115t-97.5 -36zM586 451h80l39 -164l38 164h82
q3 -45 13 -297h-60q0 108 -6 213l-41 -168h-55l-41 168h-2q-4 -140 -4 -213h-58q3 156 15 297zM987 150q-60 0 -84 35.5t-24 115.5q0 81 24 117.5t84 36.5t85.5 -37t25.5 -117q0 -79 -25.5 -115t-85.5 -36zM987 403q-29 0 -39 -23.5t-10 -78.5q0 -54 10 -78t39 -24
q30 0 40.5 24t10.5 78q0 55 -10 78.5t-41 23.5zM967 1016q49 0 79.5 -24.5t39 -51t8.5 -53.5q0 -43 -34.5 -72.5t-72.5 -34.5q-213 -23 -340 -147q3 8 9 22t25 53.5t39 75.5t50 80.5t59.5 76t66 53.5t71.5 22zM285 909q39 0 78 -21t69.5 -55t58.5 -74.5t48 -81.5t35 -75
t22 -55l8 -21q-117 148 -319 148q-49 0 -88 30t-39 76q0 53 33.5 91t93.5 38zM643 1214q38 -37 48.5 -102t-2.5 -131t-31.5 -126.5t-35.5 -98.5l-18 -39q20 191 -125 330q-35 35 -42 81.5t24 83.5q23 23 53 34t65 3.5t64 -35.5z" />
    <glyph glyph-name="parenleft" unicode="(" 
d="M207 403q-13 0 -19 -2v-200q4 -2 19 -2q37 0 50 25t13 77q0 54 -13 78t-50 24zM518 330v-49h-82v-78h96v-49h-155v297h155v-52h-96v-69h82zM203 150q-47 0 -74 4v292q61 9 76 9q67 0 96 -37.5t29 -116.5t-29.5 -115t-97.5 -36zM586 451h80l39 -164l38 164h82
q3 -45 13 -297h-60q0 108 -6 213l-41 -168h-55l-41 168h-2q-4 -140 -4 -213h-58q3 156 15 297zM987 150q-60 0 -84 35.5t-24 115.5q0 81 24 117.5t84 36.5t85.5 -37t25.5 -117q0 -79 -25.5 -115t-85.5 -36zM987 403q-29 0 -39 -23.5t-10 -78.5q0 -54 10 -78t39 -24
q30 0 40.5 24t10.5 78q0 55 -10 78.5t-41 23.5zM967 1016q49 0 79.5 -24.5t39 -51t8.5 -53.5q0 -43 -34.5 -72.5t-72.5 -34.5q-213 -23 -340 -147q3 8 9 22t25 53.5t39 75.5t50 80.5t59.5 76t66 53.5t71.5 22zM285 909q39 0 78 -21t69.5 -55t58.5 -74.5t48 -81.5t35 -75
t22 -55l8 -21q-117 148 -319 148q-49 0 -88 30t-39 76q0 53 33.5 91t93.5 38zM643 1214q38 -37 48.5 -102t-2.5 -131t-31.5 -126.5t-35.5 -98.5l-18 -39q20 191 -125 330q-35 35 -42 81.5t24 83.5q23 23 53 34t65 3.5t64 -35.5z" />
    <glyph glyph-name="parenright" unicode=")" 
d="M207 403q-13 0 -19 -2v-200q4 -2 19 -2q37 0 50 25t13 77q0 54 -13 78t-50 24zM518 330v-49h-82v-78h96v-49h-155v297h155v-52h-96v-69h82zM203 150q-47 0 -74 4v292q61 9 76 9q67 0 96 -37.5t29 -116.5t-29.5 -115t-97.5 -36zM586 451h80l39 -164l38 164h82
q3 -45 13 -297h-60q0 108 -6 213l-41 -168h-55l-41 168h-2q-4 -140 -4 -213h-58q3 156 15 297zM987 150q-60 0 -84 35.5t-24 115.5q0 81 24 117.5t84 36.5t85.5 -37t25.5 -117q0 -79 -25.5 -115t-85.5 -36zM987 403q-29 0 -39 -23.5t-10 -78.5q0 -54 10 -78t39 -24
q30 0 40.5 24t10.5 78q0 55 -10 78.5t-41 23.5zM967 1016q49 0 79.5 -24.5t39 -51t8.5 -53.5q0 -43 -34.5 -72.5t-72.5 -34.5q-213 -23 -340 -147q3 8 9 22t25 53.5t39 75.5t50 80.5t59.5 76t66 53.5t71.5 22zM285 909q39 0 78 -21t69.5 -55t58.5 -74.5t48 -81.5t35 -75
t22 -55l8 -21q-117 148 -319 148q-49 0 -88 30t-39 76q0 53 33.5 91t93.5 38zM643 1214q38 -37 48.5 -102t-2.5 -131t-31.5 -126.5t-35.5 -98.5l-18 -39q20 191 -125 330q-35 35 -42 81.5t24 83.5q23 23 53 34t65 3.5t64 -35.5z" />
    <glyph glyph-name="asterisk" unicode="*" 
d="M207 403q-13 0 -19 -2v-200q4 -2 19 -2q37 0 50 25t13 77q0 54 -13 78t-50 24zM518 330v-49h-82v-78h96v-49h-155v297h155v-52h-96v-69h82zM203 150q-47 0 -74 4v292q61 9 76 9q67 0 96 -37.5t29 -116.5t-29.5 -115t-97.5 -36zM586 451h80l39 -164l38 164h82
q3 -45 13 -297h-60q0 108 -6 213l-41 -168h-55l-41 168h-2q-4 -140 -4 -213h-58q3 156 15 297zM987 150q-60 0 -84 35.5t-24 115.5q0 81 24 117.5t84 36.5t85.5 -37t25.5 -117q0 -79 -25.5 -115t-85.5 -36zM987 403q-29 0 -39 -23.5t-10 -78.5q0 -54 10 -78t39 -24
q30 0 40.5 24t10.5 78q0 55 -10 78.5t-41 23.5zM967 1016q49 0 79.5 -24.5t39 -51t8.5 -53.5q0 -43 -34.5 -72.5t-72.5 -34.5q-213 -23 -340 -147q3 8 9 22t25 53.5t39 75.5t50 80.5t59.5 76t66 53.5t71.5 22zM285 909q39 0 78 -21t69.5 -55t58.5 -74.5t48 -81.5t35 -75
t22 -55l8 -21q-117 148 -319 148q-49 0 -88 30t-39 76q0 53 33.5 91t93.5 38zM643 1214q38 -37 48.5 -102t-2.5 -131t-31.5 -126.5t-35.5 -98.5l-18 -39q20 191 -125 330q-35 35 -42 81.5t24 83.5q23 23 53 34t65 3.5t64 -35.5z" />
    <glyph glyph-name="plus" unicode="+" 
d="M207 403q-13 0 -19 -2v-200q4 -2 19 -2q37 0 50 25t13 77q0 54 -13 78t-50 24zM518 330v-49h-82v-78h96v-49h-155v297h155v-52h-96v-69h82zM203 150q-47 0 -74 4v292q61 9 76 9q67 0 96 -37.5t29 -116.5t-29.5 -115t-97.5 -36zM586 451h80l39 -164l38 164h82
q3 -45 13 -297h-60q0 108 -6 213l-41 -168h-55l-41 168h-2q-4 -140 -4 -213h-58q3 156 15 297zM987 150q-60 0 -84 35.5t-24 115.5q0 81 24 117.5t84 36.5t85.5 -37t25.5 -117q0 -79 -25.5 -115t-85.5 -36zM987 403q-29 0 -39 -23.5t-10 -78.5q0 -54 10 -78t39 -24
q30 0 40.5 24t10.5 78q0 55 -10 78.5t-41 23.5zM967 1016q49 0 79.5 -24.5t39 -51t8.5 -53.5q0 -43 -34.5 -72.5t-72.5 -34.5q-213 -23 -340 -147q3 8 9 22t25 53.5t39 75.5t50 80.5t59.5 76t66 53.5t71.5 22zM285 909q39 0 78 -21t69.5 -55t58.5 -74.5t48 -81.5t35 -75
t22 -55l8 -21q-117 148 -319 148q-49 0 -88 30t-39 76q0 53 33.5 91t93.5 38zM643 1214q38 -37 48.5 -102t-2.5 -131t-31.5 -126.5t-35.5 -98.5l-18 -39q20 191 -125 330q-35 35 -42 81.5t24 83.5q23 23 53 34t65 3.5t64 -35.5z" />
    <glyph glyph-name="comma" unicode="," horiz-adv-x="354" 
d="M147 -244h-69l131 316h70z" />
    <glyph glyph-name="hyphen" unicode="-" 
d="M207 403q-13 0 -19 -2v-200q4 -2 19 -2q37 0 50 25t13 77q0 54 -13 78t-50 24zM518 330v-49h-82v-78h96v-49h-155v297h155v-52h-96v-69h82zM203 150q-47 0 -74 4v292q61 9 76 9q67 0 96 -37.5t29 -116.5t-29.5 -115t-97.5 -36zM586 451h80l39 -164l38 164h82
q3 -45 13 -297h-60q0 108 -6 213l-41 -168h-55l-41 168h-2q-4 -140 -4 -213h-58q3 156 15 297zM987 150q-60 0 -84 35.5t-24 115.5q0 81 24 117.5t84 36.5t85.5 -37t25.5 -117q0 -79 -25.5 -115t-85.5 -36zM987 403q-29 0 -39 -23.5t-10 -78.5q0 -54 10 -78t39 -24
q30 0 40.5 24t10.5 78q0 55 -10 78.5t-41 23.5zM967 1016q49 0 79.5 -24.5t39 -51t8.5 -53.5q0 -43 -34.5 -72.5t-72.5 -34.5q-213 -23 -340 -147q3 8 9 22t25 53.5t39 75.5t50 80.5t59.5 76t66 53.5t71.5 22zM285 909q39 0 78 -21t69.5 -55t58.5 -74.5t48 -81.5t35 -75
t22 -55l8 -21q-117 148 -319 148q-49 0 -88 30t-39 76q0 53 33.5 91t93.5 38zM643 1214q38 -37 48.5 -102t-2.5 -131t-31.5 -126.5t-35.5 -98.5l-18 -39q20 191 -125 330q-35 35 -42 81.5t24 83.5q23 23 53 34t65 3.5t64 -35.5z" />
    <glyph glyph-name="period" unicode="." horiz-adv-x="313" 
d="M156 -10q-28 0 -43 16t-15 39q0 24 15 41.5t43 17.5q29 0 44 -17.5t15 -41.5t-15 -39.5t-44 -15.5z" />
    <glyph glyph-name="slash" unicode="/" 
d="M207 403q-13 0 -19 -2v-200q4 -2 19 -2q37 0 50 25t13 77q0 54 -13 78t-50 24zM518 330v-49h-82v-78h96v-49h-155v297h155v-52h-96v-69h82zM203 150q-47 0 -74 4v292q61 9 76 9q67 0 96 -37.5t29 -116.5t-29.5 -115t-97.5 -36zM586 451h80l39 -164l38 164h82
q3 -45 13 -297h-60q0 108 -6 213l-41 -168h-55l-41 168h-2q-4 -140 -4 -213h-58q3 156 15 297zM987 150q-60 0 -84 35.5t-24 115.5q0 81 24 117.5t84 36.5t85.5 -37t25.5 -117q0 -79 -25.5 -115t-85.5 -36zM987 403q-29 0 -39 -23.5t-10 -78.5q0 -54 10 -78t39 -24
q30 0 40.5 24t10.5 78q0 55 -10 78.5t-41 23.5zM967 1016q49 0 79.5 -24.5t39 -51t8.5 -53.5q0 -43 -34.5 -72.5t-72.5 -34.5q-213 -23 -340 -147q3 8 9 22t25 53.5t39 75.5t50 80.5t59.5 76t66 53.5t71.5 22zM285 909q39 0 78 -21t69.5 -55t58.5 -74.5t48 -81.5t35 -75
t22 -55l8 -21q-117 148 -319 148q-49 0 -88 30t-39 76q0 53 33.5 91t93.5 38zM643 1214q38 -37 48.5 -102t-2.5 -131t-31.5 -126.5t-35.5 -98.5l-18 -39q20 191 -125 330q-35 35 -42 81.5t24 83.5q23 23 53 34t65 3.5t64 -35.5z" />
    <glyph glyph-name="zero" unicode="0" horiz-adv-x="1443" 
d="M723 -31q-121 0 -220.5 37.5t-170 105t-119 161.5t-71.5 205.5t-23 238.5t23 238.5t71.5 205t119 161t170 105t220.5 37.5t220.5 -37.5t170 -105t119 -161t71.5 -205t23 -238.5t-23 -238.5t-71.5 -205.5t-119 -161.5t-170 -105t-220.5 -37.5zM723 41q138 0 242.5 53
t167 147t93.5 214t31 262t-31 262t-93.5 214t-167 147t-242.5 53q-111 0 -201.5 -35t-152 -96.5t-103 -147.5t-60 -185t-18.5 -212t18.5 -212t60 -185t103 -147.5t152 -96.5t201.5 -35z" />
    <glyph glyph-name="one" unicode="1" horiz-adv-x="491" 
d="M324 1434v-1434h-70v1366h-193l9 68h254z" />
    <glyph glyph-name="two" unicode="2" horiz-adv-x="1263" 
d="M1120 0h-968v76l614 526q66 54 100 84t78 76.5t64.5 84t35.5 88.5t15 109q0 168 -105 259.5t-313 91.5q-457 0 -428 -439h-70q-20 249 114 378.5t380 129.5q235 0 362 -114.5t127 -311.5q0 -59 -12 -108.5t-34 -92.5t-65.5 -92t-92 -94.5t-129.5 -113.5l-560 -471h887
v-66z" />
    <glyph glyph-name="three" unicode="3" horiz-adv-x="1251" 
d="M618 -31q-239 0 -375 121t-124 346h65q-13 -186 104.5 -292.5t334.5 -106.5q219 0 330.5 104t111.5 275q0 68 -16 123.5t-41.5 93.5t-62.5 66.5t-73.5 44.5t-80 26t-77.5 13t-69 3q-59 0 -178 -18v61l485 537h-747v68h842v-60l-486 -532q44 7 90 7.5t95 -5t95.5 -20.5
t90.5 -37t80 -57t63.5 -79t42.5 -103.5t15 -129.5q0 -71 -18.5 -135.5t-59 -122t-99.5 -100t-146 -67t-192 -24.5z" />
    <glyph glyph-name="four" unicode="4" 
d="M207 403q-13 0 -19 -2v-200q4 -2 19 -2q37 0 50 25t13 77q0 54 -13 78t-50 24zM518 330v-49h-82v-78h96v-49h-155v297h155v-52h-96v-69h82zM203 150q-47 0 -74 4v292q61 9 76 9q67 0 96 -37.5t29 -116.5t-29.5 -115t-97.5 -36zM586 451h80l39 -164l38 164h82
q3 -45 13 -297h-60q0 108 -6 213l-41 -168h-55l-41 168h-2q-4 -140 -4 -213h-58q3 156 15 297zM987 150q-60 0 -84 35.5t-24 115.5q0 81 24 117.5t84 36.5t85.5 -37t25.5 -117q0 -79 -25.5 -115t-85.5 -36zM987 403q-29 0 -39 -23.5t-10 -78.5q0 -54 10 -78t39 -24
q30 0 40.5 24t10.5 78q0 55 -10 78.5t-41 23.5zM967 1016q49 0 79.5 -24.5t39 -51t8.5 -53.5q0 -43 -34.5 -72.5t-72.5 -34.5q-213 -23 -340 -147q3 8 9 22t25 53.5t39 75.5t50 80.5t59.5 76t66 53.5t71.5 22zM285 909q39 0 78 -21t69.5 -55t58.5 -74.5t48 -81.5t35 -75
t22 -55l8 -21q-117 148 -319 148q-49 0 -88 30t-39 76q0 53 33.5 91t93.5 38zM643 1214q38 -37 48.5 -102t-2.5 -131t-31.5 -126.5t-35.5 -98.5l-18 -39q20 191 -125 330q-35 35 -42 81.5t24 83.5q23 23 53 34t65 3.5t64 -35.5z" />
    <glyph glyph-name="five" unicode="5" horiz-adv-x="1271" 
d="M627 -31q-254 0 -385.5 124t-122.5 343h71q-5 -90 17.5 -161.5t73.5 -126t138 -84t206 -29.5q460 0 460 428q0 205 -115.5 308t-336.5 103q-97 0 -175.5 -18.5t-126 -49.5t-75.5 -61.5t-41 -62.5h-53v752h907v-70h-840v-567q62 68 169 104.5t245 36.5q254 0 382 -124
t128 -349q0 -246 -141 -371t-385 -125z" />
    <glyph glyph-name="six" unicode="6" horiz-adv-x="1288" 
d="M657 977q104 0 190 -27.5t145 -75t99.5 -111.5t59 -136.5t18.5 -151.5q0 -142 -60.5 -255.5t-181.5 -182t-284 -68.5q-244 0 -384 143.5t-140 368.5q0 101 36.5 201.5t131.5 214.5l444 537h90l-448 -533q98 76 284 76zM643 37q145 0 250 59.5t156 158t51 224.5
q0 193 -119.5 313.5t-337.5 120.5q-216 0 -335.5 -120.5t-119.5 -313.5q0 -94 30 -174t86 -140t143 -94t196 -34z" />
    <glyph glyph-name="seven" unicode="7" horiz-adv-x="1282" 
d="M1204 1434l-946 -1434h-86l905 1362h-993v72h1120z" />
    <glyph glyph-name="eight" unicode="8" horiz-adv-x="1341" 
d="M672 -31q-134 0 -236.5 32.5t-163.5 91t-91.5 132.5t-30.5 162q0 142 77 242.5t213 138.5q-104 40 -168.5 128t-64.5 208q0 75 27.5 139t82 114t145.5 78.5t210 28.5t209.5 -28.5t145 -78.5t81.5 -114t27 -139q0 -120 -64.5 -208t-169.5 -128q136 -38 214.5 -140
t78.5 -241q0 -88 -30.5 -162t-92 -132.5t-163.5 -91t-236 -32.5zM672 803q175 0 281 74t106 223q0 77 -29 134.5t-82 91.5t-122 50.5t-154 16.5q-177 0 -283 -71.5t-106 -221.5q0 -149 107 -223t282 -74zM672 41q94 0 170.5 18t140 57.5t98.5 109t35 165.5q0 90 -34 157.5
t-95.5 107t-140 58.5t-174.5 19q-97 0 -176 -19t-141 -58.5t-96 -107t-34 -157.5q0 -94 35.5 -163.5t98.5 -109.5t141 -58.5t172 -18.5z" />
    <glyph glyph-name="nine" unicode="9" horiz-adv-x="1288" 
d="M643 1464q164 0 284.5 -67.5t181 -182.5t60.5 -262q0 -101 -36.5 -201t-131.5 -214l-444 -537h-90l448 532q-51 -39 -117 -57t-167 -18q-104 0 -190 27.5t-145 74.5t-99.5 111.5t-59 136.5t-18.5 151q0 106 35.5 198t101 160.5t165.5 108t222 39.5zM643 520
q218 0 337.5 120.5t119.5 313.5q0 126 -51 225t-156 158.5t-250 59.5q-215 0 -335 -124.5t-120 -318.5q0 -193 119.5 -313.5t335.5 -120.5z" />
    <glyph glyph-name="colon" unicode=":" horiz-adv-x="313" 
d="M156 981q-28 0 -43 16t-15 39q0 24 15.5 42t42.5 18q29 0 44 -18t15 -42t-15 -39.5t-44 -15.5zM156 -10q-28 0 -43 16t-15 39q0 24 15 41.5t43 17.5q29 0 44 -17.5t15 -41.5t-15 -39.5t-44 -15.5z" />
    <glyph glyph-name="semicolon" unicode=";" horiz-adv-x="382" 
d="M246 981q-29 0 -44.5 16t-15.5 39q0 24 15.5 42t44.5 18t44 -18t15 -42t-15 -39.5t-44 -15.5zM147 -244h-69l131 316h70z" />
    <glyph glyph-name="less" unicode="&#x3c;" 
d="M207 403q-13 0 -19 -2v-200q4 -2 19 -2q37 0 50 25t13 77q0 54 -13 78t-50 24zM518 330v-49h-82v-78h96v-49h-155v297h155v-52h-96v-69h82zM203 150q-47 0 -74 4v292q61 9 76 9q67 0 96 -37.5t29 -116.5t-29.5 -115t-97.5 -36zM586 451h80l39 -164l38 164h82
q3 -45 13 -297h-60q0 108 -6 213l-41 -168h-55l-41 168h-2q-4 -140 -4 -213h-58q3 156 15 297zM987 150q-60 0 -84 35.5t-24 115.5q0 81 24 117.5t84 36.5t85.5 -37t25.5 -117q0 -79 -25.5 -115t-85.5 -36zM987 403q-29 0 -39 -23.5t-10 -78.5q0 -54 10 -78t39 -24
q30 0 40.5 24t10.5 78q0 55 -10 78.5t-41 23.5zM967 1016q49 0 79.5 -24.5t39 -51t8.5 -53.5q0 -43 -34.5 -72.5t-72.5 -34.5q-213 -23 -340 -147q3 8 9 22t25 53.5t39 75.5t50 80.5t59.5 76t66 53.5t71.5 22zM285 909q39 0 78 -21t69.5 -55t58.5 -74.5t48 -81.5t35 -75
t22 -55l8 -21q-117 148 -319 148q-49 0 -88 30t-39 76q0 53 33.5 91t93.5 38zM643 1214q38 -37 48.5 -102t-2.5 -131t-31.5 -126.5t-35.5 -98.5l-18 -39q20 191 -125 330q-35 35 -42 81.5t24 83.5q23 23 53 34t65 3.5t64 -35.5z" />
    <glyph glyph-name="equal" unicode="=" 
d="M207 403q-13 0 -19 -2v-200q4 -2 19 -2q37 0 50 25t13 77q0 54 -13 78t-50 24zM518 330v-49h-82v-78h96v-49h-155v297h155v-52h-96v-69h82zM203 150q-47 0 -74 4v292q61 9 76 9q67 0 96 -37.5t29 -116.5t-29.5 -115t-97.5 -36zM586 451h80l39 -164l38 164h82
q3 -45 13 -297h-60q0 108 -6 213l-41 -168h-55l-41 168h-2q-4 -140 -4 -213h-58q3 156 15 297zM987 150q-60 0 -84 35.5t-24 115.5q0 81 24 117.5t84 36.5t85.5 -37t25.5 -117q0 -79 -25.5 -115t-85.5 -36zM987 403q-29 0 -39 -23.5t-10 -78.5q0 -54 10 -78t39 -24
q30 0 40.5 24t10.5 78q0 55 -10 78.5t-41 23.5zM967 1016q49 0 79.5 -24.5t39 -51t8.5 -53.5q0 -43 -34.5 -72.5t-72.5 -34.5q-213 -23 -340 -147q3 8 9 22t25 53.5t39 75.5t50 80.5t59.5 76t66 53.5t71.5 22zM285 909q39 0 78 -21t69.5 -55t58.5 -74.5t48 -81.5t35 -75
t22 -55l8 -21q-117 148 -319 148q-49 0 -88 30t-39 76q0 53 33.5 91t93.5 38zM643 1214q38 -37 48.5 -102t-2.5 -131t-31.5 -126.5t-35.5 -98.5l-18 -39q20 191 -125 330q-35 35 -42 81.5t24 83.5q23 23 53 34t65 3.5t64 -35.5z" />
    <glyph glyph-name="greater" unicode="&#x3e;" 
d="M207 403q-13 0 -19 -2v-200q4 -2 19 -2q37 0 50 25t13 77q0 54 -13 78t-50 24zM518 330v-49h-82v-78h96v-49h-155v297h155v-52h-96v-69h82zM203 150q-47 0 -74 4v292q61 9 76 9q67 0 96 -37.5t29 -116.5t-29.5 -115t-97.5 -36zM586 451h80l39 -164l38 164h82
q3 -45 13 -297h-60q0 108 -6 213l-41 -168h-55l-41 168h-2q-4 -140 -4 -213h-58q3 156 15 297zM987 150q-60 0 -84 35.5t-24 115.5q0 81 24 117.5t84 36.5t85.5 -37t25.5 -117q0 -79 -25.5 -115t-85.5 -36zM987 403q-29 0 -39 -23.5t-10 -78.5q0 -54 10 -78t39 -24
q30 0 40.5 24t10.5 78q0 55 -10 78.5t-41 23.5zM967 1016q49 0 79.5 -24.5t39 -51t8.5 -53.5q0 -43 -34.5 -72.5t-72.5 -34.5q-213 -23 -340 -147q3 8 9 22t25 53.5t39 75.5t50 80.5t59.5 76t66 53.5t71.5 22zM285 909q39 0 78 -21t69.5 -55t58.5 -74.5t48 -81.5t35 -75
t22 -55l8 -21q-117 148 -319 148q-49 0 -88 30t-39 76q0 53 33.5 91t93.5 38zM643 1214q38 -37 48.5 -102t-2.5 -131t-31.5 -126.5t-35.5 -98.5l-18 -39q20 191 -125 330q-35 35 -42 81.5t24 83.5q23 23 53 34t65 3.5t64 -35.5z" />
    <glyph glyph-name="question" unicode="?" horiz-adv-x="1366" 
d="M674 233h-72q-4 67 2.5 113t31.5 95t79 90t141 79l74 33q55 24 93 48.5t75.5 66t56.5 104t19 146.5q0 91 -25 160t-80 120.5t-147 78t-220 26.5q-534 0 -507 -459h-76q-12 266 137.5 398t441.5 132q279 0 414 -118.5t135 -356.5q0 -151 -63.5 -246t-235.5 -170l-80 -36
q-53 -23 -89 -47.5t-57 -49.5t-32 -59t-14 -66.5t-2 -81.5zM635 -10q-29 0 -44.5 16t-15.5 39q0 24 15.5 41.5t44.5 17.5t44 -17.5t15 -41.5t-15 -39.5t-44 -15.5z" />
    <glyph glyph-name="at" unicode="@" 
d="M207 403q-13 0 -19 -2v-200q4 -2 19 -2q37 0 50 25t13 77q0 54 -13 78t-50 24zM518 330v-49h-82v-78h96v-49h-155v297h155v-52h-96v-69h82zM203 150q-47 0 -74 4v292q61 9 76 9q67 0 96 -37.5t29 -116.5t-29.5 -115t-97.5 -36zM586 451h80l39 -164l38 164h82
q3 -45 13 -297h-60q0 108 -6 213l-41 -168h-55l-41 168h-2q-4 -140 -4 -213h-58q3 156 15 297zM987 150q-60 0 -84 35.5t-24 115.5q0 81 24 117.5t84 36.5t85.5 -37t25.5 -117q0 -79 -25.5 -115t-85.5 -36zM987 403q-29 0 -39 -23.5t-10 -78.5q0 -54 10 -78t39 -24
q30 0 40.5 24t10.5 78q0 55 -10 78.5t-41 23.5zM967 1016q49 0 79.5 -24.5t39 -51t8.5 -53.5q0 -43 -34.5 -72.5t-72.5 -34.5q-213 -23 -340 -147q3 8 9 22t25 53.5t39 75.5t50 80.5t59.5 76t66 53.5t71.5 22zM285 909q39 0 78 -21t69.5 -55t58.5 -74.5t48 -81.5t35 -75
t22 -55l8 -21q-117 148 -319 148q-49 0 -88 30t-39 76q0 53 33.5 91t93.5 38zM643 1214q38 -37 48.5 -102t-2.5 -131t-31.5 -126.5t-35.5 -98.5l-18 -39q20 191 -125 330q-35 35 -42 81.5t24 83.5q23 23 53 34t65 3.5t64 -35.5z" />
    <glyph glyph-name="A" unicode="A" horiz-adv-x="1552" 
d="M1477 0h-80l-109 238h-1024l-108 -238h-78l657 1434h82zM776 1356l-481 -1051h962z" />
    <glyph glyph-name="B" unicode="B" horiz-adv-x="1499" 
d="M1108 729q96 -16 162.5 -70t95.5 -126.5t29 -157.5q0 -52 -10 -99t-41 -99t-80 -89.5t-134.5 -62.5t-197.5 -25h-762v1434h704q111 0 195 -21.5t134 -56.5t81 -85.5t42 -101.5t11 -112q0 -76 -16.5 -131.5t-69 -108.5t-143.5 -88zM860 1366h-616v-608h616q210 0 307 68.5
t97 226.5q0 169 -97 241t-307 72zM244 68h674q207 0 305 74t98 239q0 157 -99 231t-304 74l-674 4v-622z" />
    <glyph glyph-name="C" unicode="C" horiz-adv-x="1677" 
d="M866 -31q-175 0 -318 59.5t-236 162t-143 237.5t-50 289t50 289t143 237.5t236 161.5t318 59q267 0 443 -123.5t239 -373.5h-71q-122 426 -611 426q-130 0 -240 -35t-189 -97t-134.5 -147t-82.5 -185.5t-27 -211.5t27 -211.5t82.5 -185.5t134.5 -147t189 -97t240 -35
q489 0 611 426h71q-63 -251 -239.5 -374.5t-442.5 -123.5z" />
    <glyph glyph-name="D" unicode="D" horiz-adv-x="1615" 
d="M782 0h-612v1434h612q357 0 531 -184t174 -533t-174 -533t-531 -184zM244 1364v-1294h512q334 0 495.5 159t161.5 488t-161.5 488t-495.5 159h-512z" />
    <glyph glyph-name="E" unicode="E" horiz-adv-x="1384" 
d="M1329 1434v-68h-1085v-635h1026v-67h-1026v-596h1085v-68h-1159v1434h1159z" />
    <glyph glyph-name="F" unicode="F" horiz-adv-x="1384" 
d="M1329 1434v-70h-1085v-608h1011v-72h-1011v-684h-74v1434h1159z" />
    <glyph glyph-name="G" unicode="G" horiz-adv-x="1697" 
d="M895 -31q-185 0 -333.5 57.5t-244.5 158.5t-147 236.5t-51 293.5t50 294t143.5 237.5t238 159.5t323.5 58q251 0 421 -120.5t233 -358.5h-74q-126 408 -577 408q-166 0 -298 -53t-215.5 -146t-127 -214.5t-43.5 -262.5t44.5 -262t129.5 -213.5t220.5 -145.5t307.5 -53
q180 0 325.5 54t237.5 165v365h-569v67h639v-471q-109 -125 -272 -189.5t-361 -64.5z" />
    <glyph glyph-name="H" unicode="H" horiz-adv-x="1597" 
d="M1354 702v732h73v-1434h-73v633h-1110v-633h-74v1434h74v-732h1110z" />
    <glyph glyph-name="I" unicode="I" horiz-adv-x="413" 
d="M244 0h-74v1434h74v-1434z" />
    <glyph glyph-name="J" unicode="J" horiz-adv-x="1464" 
d="M707 -31q-301 0 -444.5 121t-143.5 395h74q0 -112 25.5 -191.5t84 -137.5t159 -86.5t245.5 -28.5q146 0 246 29.5t158.5 90t84 144t25.5 201.5v928h73v-928q0 -286 -143.5 -411.5t-443.5 -125.5z" />
    <glyph glyph-name="K" unicode="K" horiz-adv-x="1572" 
d="M854 731l641 -731h-94l-590 680l-569 -680h-72v1434h72v-1334l1112 1334h88z" />
    <glyph glyph-name="L" unicode="L" horiz-adv-x="1390" 
d="M244 1434v-1364h1028v-70h-1102v1434h74z" />
    <glyph glyph-name="M" unicode="M" horiz-adv-x="1843" 
d="M242 0h-72v1434h106l642 -1332h8l641 1332h108v-1434h-73v1333h-11l-635 -1331h-69l-635 1331h-10v-1333z" />
    <glyph glyph-name="N" unicode="N" horiz-adv-x="1581" 
d="M244 0h-74v1434h92l1067 -1340h10l-2 268v1072h74v-1434h-92l-1067 1339h-10l2 -268v-1071z" />
    <glyph glyph-name="O" unicode="O" horiz-adv-x="1732" 
d="M866 -31q-174 0 -316.5 59.5t-236 161.5t-144 237.5t-50.5 289.5t50.5 289t144 237.5t236 161.5t316.5 59t316.5 -59t236 -161.5t144.5 -237.5t51 -289t-51 -289.5t-144.5 -237.5t-236 -161.5t-316.5 -59.5zM866 41q130 0 240 35t189.5 97t135 147t82.5 185.5t27 211.5
t-27 211.5t-82.5 185.5t-135 147t-189.5 97t-240 35t-240 -35t-189 -97t-134.5 -147t-82.5 -185.5t-27 -211.5t27 -211.5t82.5 -185.5t134.5 -147t189 -97t240 -35z" />
    <glyph glyph-name="P" unicode="P" horiz-adv-x="1554" 
d="M877 1434q279 0 414.5 -131.5t135.5 -372.5q0 -239 -136 -372.5t-414 -133.5h-633v-424h-74v1434h707zM244 496h612q90 0 162 12t136 42.5t107 79t68 124.5t25 176q0 102 -25 178.5t-67.5 124.5t-107.5 78t-136.5 41.5t-161.5 11.5h-612v-868z" />
    <glyph glyph-name="Q" unicode="Q" horiz-adv-x="1732" 
d="M1614 717q0 -149 -48 -281.5t-137 -234.5t-224.5 -163.5t-301.5 -68.5v-184h-69v184q-134 5 -249 46t-199.5 110t-145 161.5t-91 202t-30.5 228.5q0 154 50.5 289t144 237.5t236 161.5t316.5 59t316.5 -59t236 -161.5t144.5 -237.5t51 -289zM903 451v-410q123 5 227 42.5
t179 100t127.5 146.5t78 181.5t25.5 205.5q0 111 -27 211.5t-82.5 185.5t-135 147t-189.5 97t-240 35t-240 -35t-189 -97t-134.5 -147t-82.5 -185.5t-27 -211.5q0 -136 41 -255t119.5 -211t202 -148t278.5 -62v410h69z" />
    <glyph glyph-name="R" unicode="R" horiz-adv-x="1519" 
d="M1427 997q0 -170 -86.5 -282.5t-271.5 -143.5l344 -571h-84l-336 563q-18 -2 -59 -2h-690v-561h-74v1434h764q130 0 227 -33.5t154 -94t84.5 -137.5t27.5 -172zM244 631h663q84 0 149 9.5t123.5 34.5t96.5 65.5t60 105t22 151.5q0 105 -32.5 178.5t-95 114t-140.5 57.5
t-183 17h-663v-733z" />
    <glyph glyph-name="S" unicode="S" horiz-adv-x="1437" 
d="M698 -31h-2q-44 0 -85 2.5t-99 11t-107 23t-101 41.5t-89.5 63t-63.5 91t-32 123h69q16 -83 63 -140.5t121 -88t157.5 -43.5t189.5 -13q528 0 528 352q0 67 -19.5 116t-53.5 81.5t-92.5 55.5t-124.5 35.5t-162 22.5l-146 19q-124 14 -211.5 38t-154.5 66.5t-100 108.5
t-33 158q0 178 140 275t431 97q67 0 127 -6t124.5 -20t117.5 -40.5t97 -64t71 -93.5t34 -126h-69q-47 285 -512 285q-146 0 -251.5 -30t-170 -101.5t-64.5 -180.5q0 -64 23 -112.5t60.5 -79.5t101 -53t129.5 -34t161 -22l144 -16q249 -27 363 -113t114 -272
q0 -416 -623 -416z" />
    <glyph glyph-name="T" unicode="T" horiz-adv-x="1454" 
d="M84 1434h1284v-70h-604v-1364h-74v1364h-606v70z" />
    <glyph glyph-name="U" unicode="U" horiz-adv-x="1570" 
d="M786 -31q-295 0 -455.5 146t-160.5 432v887h74v-891q0 -502 542 -502q541 0 541 502v891h76v-887q0 -286 -161 -432t-456 -146z" />
    <glyph glyph-name="V" unicode="V" horiz-adv-x="1552" 
d="M776 78l621 1356h80l-660 -1434h-82l-657 1434h78z" />
    <glyph glyph-name="W" unicode="W" horiz-adv-x="2445" 
d="M1815 90l475 1344h77l-509 -1434h-82l-553 1343l-555 -1343h-80l-510 1434h76l477 -1344l551 1344h82z" />
    <glyph glyph-name="X" unicode="X" horiz-adv-x="1503" 
d="M170 0h-92l622 717l-614 717h94l572 -672l573 672h92l-612 -717l622 -717h-94l-581 672z" />
    <glyph glyph-name="Y" unicode="Y" horiz-adv-x="1542" 
d="M1382 1434h84l-655 -1078v-356h-74v350l-659 1084h82l608 -1006h6z" />
    <glyph glyph-name="Z" unicode="Z" horiz-adv-x="1583" 
d="M1413 0h-1243v68l1151 1298h-1133v68h1225v-68l-1151 -1298h1151v-68z" />
    <glyph glyph-name="bracketleft" unicode="[" 
d="M207 403q-13 0 -19 -2v-200q4 -2 19 -2q37 0 50 25t13 77q0 54 -13 78t-50 24zM518 330v-49h-82v-78h96v-49h-155v297h155v-52h-96v-69h82zM203 150q-47 0 -74 4v292q61 9 76 9q67 0 96 -37.5t29 -116.5t-29.5 -115t-97.5 -36zM586 451h80l39 -164l38 164h82
q3 -45 13 -297h-60q0 108 -6 213l-41 -168h-55l-41 168h-2q-4 -140 -4 -213h-58q3 156 15 297zM987 150q-60 0 -84 35.5t-24 115.5q0 81 24 117.5t84 36.5t85.5 -37t25.5 -117q0 -79 -25.5 -115t-85.5 -36zM987 403q-29 0 -39 -23.5t-10 -78.5q0 -54 10 -78t39 -24
q30 0 40.5 24t10.5 78q0 55 -10 78.5t-41 23.5zM967 1016q49 0 79.5 -24.5t39 -51t8.5 -53.5q0 -43 -34.5 -72.5t-72.5 -34.5q-213 -23 -340 -147q3 8 9 22t25 53.5t39 75.5t50 80.5t59.5 76t66 53.5t71.5 22zM285 909q39 0 78 -21t69.5 -55t58.5 -74.5t48 -81.5t35 -75
t22 -55l8 -21q-117 148 -319 148q-49 0 -88 30t-39 76q0 53 33.5 91t93.5 38zM643 1214q38 -37 48.5 -102t-2.5 -131t-31.5 -126.5t-35.5 -98.5l-18 -39q20 191 -125 330q-35 35 -42 81.5t24 83.5q23 23 53 34t65 3.5t64 -35.5z" />
    <glyph glyph-name="backslash" unicode="\" 
d="M207 403q-13 0 -19 -2v-200q4 -2 19 -2q37 0 50 25t13 77q0 54 -13 78t-50 24zM518 330v-49h-82v-78h96v-49h-155v297h155v-52h-96v-69h82zM203 150q-47 0 -74 4v292q61 9 76 9q67 0 96 -37.5t29 -116.5t-29.5 -115t-97.5 -36zM586 451h80l39 -164l38 164h82
q3 -45 13 -297h-60q0 108 -6 213l-41 -168h-55l-41 168h-2q-4 -140 -4 -213h-58q3 156 15 297zM987 150q-60 0 -84 35.5t-24 115.5q0 81 24 117.5t84 36.5t85.5 -37t25.5 -117q0 -79 -25.5 -115t-85.5 -36zM987 403q-29 0 -39 -23.5t-10 -78.5q0 -54 10 -78t39 -24
q30 0 40.5 24t10.5 78q0 55 -10 78.5t-41 23.5zM967 1016q49 0 79.5 -24.5t39 -51t8.5 -53.5q0 -43 -34.5 -72.5t-72.5 -34.5q-213 -23 -340 -147q3 8 9 22t25 53.5t39 75.5t50 80.5t59.5 76t66 53.5t71.5 22zM285 909q39 0 78 -21t69.5 -55t58.5 -74.5t48 -81.5t35 -75
t22 -55l8 -21q-117 148 -319 148q-49 0 -88 30t-39 76q0 53 33.5 91t93.5 38zM643 1214q38 -37 48.5 -102t-2.5 -131t-31.5 -126.5t-35.5 -98.5l-18 -39q20 191 -125 330q-35 35 -42 81.5t24 83.5q23 23 53 34t65 3.5t64 -35.5z" />
    <glyph glyph-name="bracketright" unicode="]" 
d="M207 403q-13 0 -19 -2v-200q4 -2 19 -2q37 0 50 25t13 77q0 54 -13 78t-50 24zM518 330v-49h-82v-78h96v-49h-155v297h155v-52h-96v-69h82zM203 150q-47 0 -74 4v292q61 9 76 9q67 0 96 -37.5t29 -116.5t-29.5 -115t-97.5 -36zM586 451h80l39 -164l38 164h82
q3 -45 13 -297h-60q0 108 -6 213l-41 -168h-55l-41 168h-2q-4 -140 -4 -213h-58q3 156 15 297zM987 150q-60 0 -84 35.5t-24 115.5q0 81 24 117.5t84 36.5t85.5 -37t25.5 -117q0 -79 -25.5 -115t-85.5 -36zM987 403q-29 0 -39 -23.5t-10 -78.5q0 -54 10 -78t39 -24
q30 0 40.5 24t10.5 78q0 55 -10 78.5t-41 23.5zM967 1016q49 0 79.5 -24.5t39 -51t8.5 -53.5q0 -43 -34.5 -72.5t-72.5 -34.5q-213 -23 -340 -147q3 8 9 22t25 53.5t39 75.5t50 80.5t59.5 76t66 53.5t71.5 22zM285 909q39 0 78 -21t69.5 -55t58.5 -74.5t48 -81.5t35 -75
t22 -55l8 -21q-117 148 -319 148q-49 0 -88 30t-39 76q0 53 33.5 91t93.5 38zM643 1214q38 -37 48.5 -102t-2.5 -131t-31.5 -126.5t-35.5 -98.5l-18 -39q20 191 -125 330q-35 35 -42 81.5t24 83.5q23 23 53 34t65 3.5t64 -35.5z" />
    <glyph glyph-name="asciicircum" unicode="^" 
d="M207 403q-13 0 -19 -2v-200q4 -2 19 -2q37 0 50 25t13 77q0 54 -13 78t-50 24zM518 330v-49h-82v-78h96v-49h-155v297h155v-52h-96v-69h82zM203 150q-47 0 -74 4v292q61 9 76 9q67 0 96 -37.5t29 -116.5t-29.5 -115t-97.5 -36zM586 451h80l39 -164l38 164h82
q3 -45 13 -297h-60q0 108 -6 213l-41 -168h-55l-41 168h-2q-4 -140 -4 -213h-58q3 156 15 297zM987 150q-60 0 -84 35.5t-24 115.5q0 81 24 117.5t84 36.5t85.5 -37t25.5 -117q0 -79 -25.5 -115t-85.5 -36zM987 403q-29 0 -39 -23.5t-10 -78.5q0 -54 10 -78t39 -24
q30 0 40.5 24t10.5 78q0 55 -10 78.5t-41 23.5zM967 1016q49 0 79.5 -24.5t39 -51t8.5 -53.5q0 -43 -34.5 -72.5t-72.5 -34.5q-213 -23 -340 -147q3 8 9 22t25 53.5t39 75.5t50 80.5t59.5 76t66 53.5t71.5 22zM285 909q39 0 78 -21t69.5 -55t58.5 -74.5t48 -81.5t35 -75
t22 -55l8 -21q-117 148 -319 148q-49 0 -88 30t-39 76q0 53 33.5 91t93.5 38zM643 1214q38 -37 48.5 -102t-2.5 -131t-31.5 -126.5t-35.5 -98.5l-18 -39q20 191 -125 330q-35 35 -42 81.5t24 83.5q23 23 53 34t65 3.5t64 -35.5z" />
    <glyph glyph-name="underscore" unicode="_" 
d="M207 403q-13 0 -19 -2v-200q4 -2 19 -2q37 0 50 25t13 77q0 54 -13 78t-50 24zM518 330v-49h-82v-78h96v-49h-155v297h155v-52h-96v-69h82zM203 150q-47 0 -74 4v292q61 9 76 9q67 0 96 -37.5t29 -116.5t-29.5 -115t-97.5 -36zM586 451h80l39 -164l38 164h82
q3 -45 13 -297h-60q0 108 -6 213l-41 -168h-55l-41 168h-2q-4 -140 -4 -213h-58q3 156 15 297zM987 150q-60 0 -84 35.5t-24 115.5q0 81 24 117.5t84 36.5t85.5 -37t25.5 -117q0 -79 -25.5 -115t-85.5 -36zM987 403q-29 0 -39 -23.5t-10 -78.5q0 -54 10 -78t39 -24
q30 0 40.5 24t10.5 78q0 55 -10 78.5t-41 23.5zM967 1016q49 0 79.5 -24.5t39 -51t8.5 -53.5q0 -43 -34.5 -72.5t-72.5 -34.5q-213 -23 -340 -147q3 8 9 22t25 53.5t39 75.5t50 80.5t59.5 76t66 53.5t71.5 22zM285 909q39 0 78 -21t69.5 -55t58.5 -74.5t48 -81.5t35 -75
t22 -55l8 -21q-117 148 -319 148q-49 0 -88 30t-39 76q0 53 33.5 91t93.5 38zM643 1214q38 -37 48.5 -102t-2.5 -131t-31.5 -126.5t-35.5 -98.5l-18 -39q20 191 -125 330q-35 35 -42 81.5t24 83.5q23 23 53 34t65 3.5t64 -35.5z" />
    <glyph glyph-name="grave" unicode="`" 
d="M207 403q-13 0 -19 -2v-200q4 -2 19 -2q37 0 50 25t13 77q0 54 -13 78t-50 24zM518 330v-49h-82v-78h96v-49h-155v297h155v-52h-96v-69h82zM203 150q-47 0 -74 4v292q61 9 76 9q67 0 96 -37.5t29 -116.5t-29.5 -115t-97.5 -36zM586 451h80l39 -164l38 164h82
q3 -45 13 -297h-60q0 108 -6 213l-41 -168h-55l-41 168h-2q-4 -140 -4 -213h-58q3 156 15 297zM987 150q-60 0 -84 35.5t-24 115.5q0 81 24 117.5t84 36.5t85.5 -37t25.5 -117q0 -79 -25.5 -115t-85.5 -36zM987 403q-29 0 -39 -23.5t-10 -78.5q0 -54 10 -78t39 -24
q30 0 40.5 24t10.5 78q0 55 -10 78.5t-41 23.5zM967 1016q49 0 79.5 -24.5t39 -51t8.5 -53.5q0 -43 -34.5 -72.5t-72.5 -34.5q-213 -23 -340 -147q3 8 9 22t25 53.5t39 75.5t50 80.5t59.5 76t66 53.5t71.5 22zM285 909q39 0 78 -21t69.5 -55t58.5 -74.5t48 -81.5t35 -75
t22 -55l8 -21q-117 148 -319 148q-49 0 -88 30t-39 76q0 53 33.5 91t93.5 38zM643 1214q38 -37 48.5 -102t-2.5 -131t-31.5 -126.5t-35.5 -98.5l-18 -39q20 191 -125 330q-35 35 -42 81.5t24 83.5q23 23 53 34t65 3.5t64 -35.5z" />
    <glyph glyph-name="a" unicode="a" horiz-adv-x="1263" 
d="M496 -31q-196 0 -291.5 85t-95.5 237q0 62 17 112t54 91.5t103.5 64.5t158.5 23h588v176q0 55 -9.5 94.5t-34.5 74t-68.5 55t-112.5 32.5t-166 12q-111 0 -188 -14.5t-118 -42t-59 -60.5t-20 -78h-68q2 64 27.5 111.5t65.5 76.5t99.5 46.5t120.5 24t136 6.5
q131 0 223 -20.5t145.5 -61.5t77 -96t23.5 -130v-788h-72l-4 172h-6q-89 -97 -230 -150t-296 -53zM494 37h28q121 0 241.5 45.5t193.5 111t73 123.5v199h-584q-268 0 -268 -225q0 -123 80.5 -188.5t235.5 -65.5z" />
    <glyph glyph-name="b" unicode="b" horiz-adv-x="1394" 
d="M727 1098q249 0 404 -158.5t155 -407.5q0 -247 -155 -405t-404 -158q-178 0 -306.5 80.5t-189.5 214.5v-264h-71v1454h71v-590l-4 -71q59 137 186.5 221t313.5 84zM721 37q231 0 363.5 138t132.5 357t-132.5 357.5t-363.5 138.5q-225 0 -359.5 -139t-134.5 -357
q0 -217 134.5 -356t359.5 -139z" />
    <glyph glyph-name="c" unicode="c" horiz-adv-x="1288" 
d="M682 -31q-137 0 -248 45t-182 123t-108 179.5t-35 215.5q2 115 39.5 216t107.5 179t179.5 123.5t246.5 45.5q198 0 328 -94.5t170 -266.5h-68q-43 146 -154 219.5t-276 73.5q-236 0 -371 -139t-135 -357t135 -356.5t371 -138.5q165 0 276 73.5t154 219.5h68
q-46 -173 -174 -267t-324 -94z" />
    <glyph glyph-name="d" unicode="d" horiz-adv-x="1394" 
d="M1161 864v590h74v-1454h-72l-2 260q-62 -133 -190 -212t-303 -79q-249 0 -404 158t-155 405q0 249 155 407.5t404 158.5q185 0 312.5 -84t186.5 -221zM674 37q225 0 358 138.5t133 356.5t-133 357t-358 139q-231 0 -364.5 -138.5t-133.5 -357.5t133.5 -357t364.5 -138z
" />
    <glyph glyph-name="e" unicode="e" horiz-adv-x="1320" 
d="M668 1096q258 0 407.5 -161t136.5 -456h-1030q15 -204 147.5 -325t362.5 -121q281 0 395 207h76q-40 -80 -95 -135t-120 -83.5t-129 -40.5t-139 -12q-136 0 -245.5 44t-180 120.5t-108 178.5t-37.5 220q0 115 36 216t104 179.5t176 123.5t243 45zM180 543h965
q-3 234 -130.5 359.5t-346.5 125.5q-231 0 -358 -132.5t-130 -352.5z" />
    <glyph glyph-name="f" unicode="f" horiz-adv-x="827" 
d="M743 1442h-161q-107 0 -153 -58t-46 -163v-156h360v-68h-360v-997h-74v997h-225v68h225v149q0 144 66 217.5t215 73.5h153v-63z" />
    <glyph glyph-name="g" unicode="g" horiz-adv-x="1363" 
d="M621 -340q-113 0 -211 21t-156 55v69q172 -79 367 -79q72 0 135 8.5t136.5 35.5t125.5 71t86.5 122.5t34.5 183.5v175q-70 -151 -200.5 -222t-293.5 -71q-164 0 -287 71t-186 191t-63 270t63.5 271.5t187 193.5t287.5 72q181 0 309.5 -84t190.5 -221l-17 69l7 203h67
v-928q0 -230 -153 -353.5t-430 -123.5zM647 96q221 0 355.5 133.5t134.5 331.5q0 201 -134.5 334t-355.5 133q-149 0 -257.5 -64t-161 -168.5t-52.5 -234.5q0 -129 52.5 -233t161 -168t257.5 -64z" />
    <glyph glyph-name="h" unicode="h" horiz-adv-x="1333" 
d="M690 1096q230 0 358 -125t128 -353v-618h-74v600q0 222 -112 325t-304 103q-94 0 -173 -24t-143.5 -73t-101.5 -133.5t-37 -197.5v-600h-71v1454h71v-584l-12 -39q56 124 175.5 194.5t295.5 70.5z" />
    <glyph glyph-name="i" unicode="i" horiz-adv-x="407" 
d="M203 1384q-26 0 -39.5 15.5t-13.5 36.5q0 22 13.5 36.5t39.5 14.5q28 0 41.5 -14.5t13.5 -36.5q0 -21 -14 -36.5t-41 -15.5zM240 0h-74v1065h74v-1065z" />
    <glyph glyph-name="j" unicode="j" horiz-adv-x="407" 
d="M203 1386q-26 0 -39.5 15.5t-13.5 36.5t13.5 37t39.5 16q27 0 41 -16t14 -37t-14 -36.5t-41 -15.5zM242 -317h-74v1382h74v-1382z" />
    <glyph glyph-name="k" unicode="k" horiz-adv-x="1265" 
d="M709 541l526 -541h-92l-475 494l-435 -494h-73v1454h71v-1358h2l105 123l743 846h88z" />
    <glyph glyph-name="l" unicode="l" horiz-adv-x="391" 
d="M231 0h-71v1454h71v-1454z" />
    <glyph glyph-name="m" unicode="m" horiz-adv-x="2189" 
d="M1577 1098q121 0 209.5 -36t141 -102.5t77.5 -152.5t25 -195v-612h-72v580q0 81 -9.5 143.5t-35.5 121.5t-69 98t-113.5 62t-165.5 23q-221 0 -328 -124t-107 -337v-567h-71v567q0 83 -11 149t-39 126t-72 100t-113.5 63t-161.5 23q-218 0 -324.5 -124t-106.5 -337v-567
h-71v1065h69l2 -195l-10 -82h4q32 147 147.5 228.5t295.5 81.5q178 0 287 -79t151 -218q51 144 171 220.5t300 76.5z" />
    <glyph glyph-name="n" unicode="n" horiz-adv-x="1333" 
d="M231 0h-71v1065h69l2 -195l-12 -39q56 124 175.5 194.5t295.5 70.5q230 0 358 -125t128 -353v-618h-74v600q0 222 -112 325t-304 103q-94 0 -173 -24t-143.5 -73t-101.5 -133.5t-37 -197.5v-600z" />
    <glyph glyph-name="o" unicode="o" horiz-adv-x="1339" 
d="M670 -31q-129 0 -236.5 45t-177.5 122t-108.5 179t-38.5 217t38 217t107.5 179.5t177 122.5t238.5 45q104 0 194.5 -29.5t157 -81.5t114 -122.5t71.5 -154.5t24 -176q0 -115 -38 -217t-108 -179t-177.5 -122t-237.5 -45zM670 37q228 0 358.5 136.5t130.5 358.5
t-130.5 359t-358.5 137t-359 -137t-131 -359q0 -220 131.5 -357.5t358.5 -137.5z" />
    <glyph glyph-name="p" unicode="p" horiz-adv-x="1394" 
d="M727 1098q249 0 404 -158.5t155 -407.5q0 -247 -155 -405t-404 -158q-178 0 -306.5 80.5t-189.5 214.5v-559h-71v1360h71v-201l-4 -71q59 137 186.5 221t313.5 84zM721 37q231 0 363.5 138t132.5 357t-132.5 357.5t-363.5 138.5q-225 0 -359.5 -139t-134.5 -357
q0 -217 134.5 -356t359.5 -139z" />
    <glyph glyph-name="q" unicode="q" horiz-adv-x="1394" 
d="M1235 -295h-74v549q-62 -131 -190 -208t-303 -77q-249 0 -404 158t-155 405q0 249 155 407.5t404 158.5q185 0 312.5 -84t186.5 -221l-6 71l2 201h72v-1360zM674 37q225 0 358 138.5t133 356.5t-133 357t-358 139q-231 0 -364.5 -138.5t-133.5 -357.5t133.5 -357
t364.5 -138z" />
    <glyph glyph-name="r" unicode="r" horiz-adv-x="1167" 
d="M231 0h-71v1065h69l2 -191v5q104 217 402 217q196 0 300.5 -95.5t104.5 -257.5v-47h-69v19q0 161 -91.5 237t-248.5 76q-64 0 -118.5 -11.5t-107.5 -41.5t-90 -77.5t-59.5 -124t-22.5 -175.5v-598z" />
    <glyph glyph-name="s" unicode="s" horiz-adv-x="1171" 
d="M582 -31q-45 0 -83.5 2.5t-87 10t-87 20t-78 35.5t-67.5 54t-47 77t-23 102h65q18 -124 115 -180.5t307 -56.5q73 0 130.5 6.5t110 23t87 43.5t55 71t20.5 102q0 104 -63.5 149t-218.5 59l-256 27q-181 18 -261.5 90.5t-80.5 194.5q0 147 117 222t348 75q447 0 456 -318
h-63q-6 60 -27.5 104t-66.5 78.5t-122 52t-186 17.5q-204 0 -295.5 -58.5t-91.5 -172.5q0 -98 65.5 -151t229.5 -70l262 -27q93 -10 156.5 -33t98 -58.5t49 -76.5t16.5 -96q3 -173 -120 -245.5t-363 -72.5z" />
    <glyph glyph-name="t" unicode="t" horiz-adv-x="813" 
d="M717 1065v-68h-328v-741q0 -54 7.5 -87.5t29 -60t61.5 -38t103 -11.5h127v-69h-139q-150 0 -206.5 69t-56.5 222v716h-231v68h231v328h74v-328h328z" />
    <glyph glyph-name="u" unicode="u" horiz-adv-x="1335" 
d="M1102 1065h74v-1065h-72l-2 195l12 38q-56 -124 -175.5 -194t-295.5 -70q-229 0 -356 124.5t-127 352.5v619h71v-600q0 -222 112 -325t304 -103q94 0 173 24t143.5 73t101.5 133.5t37 197.5v600z" />
    <glyph glyph-name="v" unicode="v" horiz-adv-x="1214" 
d="M639 0h-64l-507 1065h75l463 -981h2l463 981h76z" />
    <glyph glyph-name="w" unicode="w" horiz-adv-x="1878" 
d="M530 0h-63l-399 1065h73l359 -973l405 973h68l407 -973l359 973h73l-399 -1065h-65l-408 973z" />
    <glyph glyph-name="x" unicode="x" horiz-adv-x="1157" 
d="M174 0h-96l461 537l-453 528h94l398 -477l399 477h94l-448 -528l456 -537h-96l-405 487z" />
    <glyph glyph-name="y" unicode="y" horiz-adv-x="1222" 
d="M500 -295h-78l151 311l-43 82l-462 967h77l465 -973h2l465 973h78z" />
    <glyph glyph-name="z" unicode="z" horiz-adv-x="1187" 
d="M1094 0h-990v68l891 929h-866v68h954v-68l-890 -929h901v-68z" />
    <glyph glyph-name="braceleft" unicode="{" 
d="M207 403q-13 0 -19 -2v-200q4 -2 19 -2q37 0 50 25t13 77q0 54 -13 78t-50 24zM518 330v-49h-82v-78h96v-49h-155v297h155v-52h-96v-69h82zM203 150q-47 0 -74 4v292q61 9 76 9q67 0 96 -37.5t29 -116.5t-29.5 -115t-97.5 -36zM586 451h80l39 -164l38 164h82
q3 -45 13 -297h-60q0 108 -6 213l-41 -168h-55l-41 168h-2q-4 -140 -4 -213h-58q3 156 15 297zM987 150q-60 0 -84 35.5t-24 115.5q0 81 24 117.5t84 36.5t85.5 -37t25.5 -117q0 -79 -25.5 -115t-85.5 -36zM987 403q-29 0 -39 -23.5t-10 -78.5q0 -54 10 -78t39 -24
q30 0 40.5 24t10.5 78q0 55 -10 78.5t-41 23.5zM967 1016q49 0 79.5 -24.5t39 -51t8.5 -53.5q0 -43 -34.5 -72.5t-72.5 -34.5q-213 -23 -340 -147q3 8 9 22t25 53.5t39 75.5t50 80.5t59.5 76t66 53.5t71.5 22zM285 909q39 0 78 -21t69.5 -55t58.5 -74.5t48 -81.5t35 -75
t22 -55l8 -21q-117 148 -319 148q-49 0 -88 30t-39 76q0 53 33.5 91t93.5 38zM643 1214q38 -37 48.5 -102t-2.5 -131t-31.5 -126.5t-35.5 -98.5l-18 -39q20 191 -125 330q-35 35 -42 81.5t24 83.5q23 23 53 34t65 3.5t64 -35.5z" />
    <glyph glyph-name="bar" unicode="|" 
d="M207 403q-13 0 -19 -2v-200q4 -2 19 -2q37 0 50 25t13 77q0 54 -13 78t-50 24zM518 330v-49h-82v-78h96v-49h-155v297h155v-52h-96v-69h82zM203 150q-47 0 -74 4v292q61 9 76 9q67 0 96 -37.5t29 -116.5t-29.5 -115t-97.5 -36zM586 451h80l39 -164l38 164h82
q3 -45 13 -297h-60q0 108 -6 213l-41 -168h-55l-41 168h-2q-4 -140 -4 -213h-58q3 156 15 297zM987 150q-60 0 -84 35.5t-24 115.5q0 81 24 117.5t84 36.5t85.5 -37t25.5 -117q0 -79 -25.5 -115t-85.5 -36zM987 403q-29 0 -39 -23.5t-10 -78.5q0 -54 10 -78t39 -24
q30 0 40.5 24t10.5 78q0 55 -10 78.5t-41 23.5zM967 1016q49 0 79.5 -24.5t39 -51t8.5 -53.5q0 -43 -34.5 -72.5t-72.5 -34.5q-213 -23 -340 -147q3 8 9 22t25 53.5t39 75.5t50 80.5t59.5 76t66 53.5t71.5 22zM285 909q39 0 78 -21t69.5 -55t58.5 -74.5t48 -81.5t35 -75
t22 -55l8 -21q-117 148 -319 148q-49 0 -88 30t-39 76q0 53 33.5 91t93.5 38zM643 1214q38 -37 48.5 -102t-2.5 -131t-31.5 -126.5t-35.5 -98.5l-18 -39q20 191 -125 330q-35 35 -42 81.5t24 83.5q23 23 53 34t65 3.5t64 -35.5z" />
    <glyph glyph-name="braceright" unicode="}" 
d="M207 403q-13 0 -19 -2v-200q4 -2 19 -2q37 0 50 25t13 77q0 54 -13 78t-50 24zM518 330v-49h-82v-78h96v-49h-155v297h155v-52h-96v-69h82zM203 150q-47 0 -74 4v292q61 9 76 9q67 0 96 -37.5t29 -116.5t-29.5 -115t-97.5 -36zM586 451h80l39 -164l38 164h82
q3 -45 13 -297h-60q0 108 -6 213l-41 -168h-55l-41 168h-2q-4 -140 -4 -213h-58q3 156 15 297zM987 150q-60 0 -84 35.5t-24 115.5q0 81 24 117.5t84 36.5t85.5 -37t25.5 -117q0 -79 -25.5 -115t-85.5 -36zM987 403q-29 0 -39 -23.5t-10 -78.5q0 -54 10 -78t39 -24
q30 0 40.5 24t10.5 78q0 55 -10 78.5t-41 23.5zM967 1016q49 0 79.5 -24.5t39 -51t8.5 -53.5q0 -43 -34.5 -72.5t-72.5 -34.5q-213 -23 -340 -147q3 8 9 22t25 53.5t39 75.5t50 80.5t59.5 76t66 53.5t71.5 22zM285 909q39 0 78 -21t69.5 -55t58.5 -74.5t48 -81.5t35 -75
t22 -55l8 -21q-117 148 -319 148q-49 0 -88 30t-39 76q0 53 33.5 91t93.5 38zM643 1214q38 -37 48.5 -102t-2.5 -131t-31.5 -126.5t-35.5 -98.5l-18 -39q20 191 -125 330q-35 35 -42 81.5t24 83.5q23 23 53 34t65 3.5t64 -35.5z" />
    <glyph glyph-name="asciitilde" unicode="~" 
d="M207 403q-13 0 -19 -2v-200q4 -2 19 -2q37 0 50 25t13 77q0 54 -13 78t-50 24zM518 330v-49h-82v-78h96v-49h-155v297h155v-52h-96v-69h82zM203 150q-47 0 -74 4v292q61 9 76 9q67 0 96 -37.5t29 -116.5t-29.5 -115t-97.5 -36zM586 451h80l39 -164l38 164h82
q3 -45 13 -297h-60q0 108 -6 213l-41 -168h-55l-41 168h-2q-4 -140 -4 -213h-58q3 156 15 297zM987 150q-60 0 -84 35.5t-24 115.5q0 81 24 117.5t84 36.5t85.5 -37t25.5 -117q0 -79 -25.5 -115t-85.5 -36zM987 403q-29 0 -39 -23.5t-10 -78.5q0 -54 10 -78t39 -24
q30 0 40.5 24t10.5 78q0 55 -10 78.5t-41 23.5zM967 1016q49 0 79.5 -24.5t39 -51t8.5 -53.5q0 -43 -34.5 -72.5t-72.5 -34.5q-213 -23 -340 -147q3 8 9 22t25 53.5t39 75.5t50 80.5t59.5 76t66 53.5t71.5 22zM285 909q39 0 78 -21t69.5 -55t58.5 -74.5t48 -81.5t35 -75
t22 -55l8 -21q-117 148 -319 148q-49 0 -88 30t-39 76q0 53 33.5 91t93.5 38zM643 1214q38 -37 48.5 -102t-2.5 -131t-31.5 -126.5t-35.5 -98.5l-18 -39q20 191 -125 330q-35 35 -42 81.5t24 83.5q23 23 53 34t65 3.5t64 -35.5z" />
    </font>
</defs>
</svg>
