<?xml version="1.0" standalone="no"?>
<!DOCTYPE svg PUBLIC "-//W3C//DTD SVG 1.1//EN" "http://www.w3.org/Graphics/SVG/1.1/DTD/svg11.dtd" >
<svg xmlns="http://www.w3.org/2000/svg" xmlns:xlink="http://www.w3.org/1999/xlink" version="1.1">
<metadata>
Created by FontForge 20201107 at Sat Jul 20 18:52:04 2024
 By 
Copyright  2020 by Connary Fagen. All rights reserved.
</metadata>
<defs>
<font id="FONTSPRINGDEMO-CriteriaCFItalic" horiz-adv-x="1224" >
  <font-face 
    font-family="FSP DEMO - Criteria CF"
    font-weight="400"
    font-style="italic"
    font-stretch="normal"
    units-per-em="2048"
    panose-1="0 0 5 0 0 0 0 0 0 0"
    ascent="1638"
    descent="-410"
    x-height="1065"
    cap-height="1434"
    bbox="-82 -340 2560 1522"
    underline-thickness="102"
    underline-position="-204"
    slope="-10"
    unicode-range="U+0020-007E"
  />
<missing-glyph 
d="M207 403q-13 0 -19 -2v-200q4 -2 19 -2q37 0 50 25t13 77q0 54 -13 78t-50 24zM518 330v-49h-82v-78h96v-49h-155v297h155v-52h-96v-69h82zM203 150q-47 0 -74 4v292q61 9 76 9q67 0 96 -37.5t29 -116.5t-29.5 -115t-97.5 -36zM586 451h80l39 -164l38 164h82
q3 -45 13 -297h-60q0 108 -6 213l-41 -168h-55l-41 168h-2q-4 -140 -4 -213h-58q3 156 15 297zM987 150q-60 0 -84 35.5t-24 115.5q0 81 24 117.5t84 36.5t85.5 -37t25.5 -117q0 -79 -25.5 -115t-85.5 -36zM987 403q-29 0 -39 -23.5t-10 -78.5q0 -54 10 -78t39 -24
q30 0 40.5 24t10.5 78q0 55 -10 78.5t-41 23.5zM967 1016q49 0 79.5 -24.5t39 -51t8.5 -53.5q0 -43 -34.5 -72.5t-72.5 -34.5q-213 -23 -340 -147q3 8 9 22t25 53.5t39 75.5t50 80.5t59.5 76t66 53.5t71.5 22zM285 909q39 0 78 -21t69.5 -55t58.5 -74.5t48 -81.5t35 -75
t22 -55l8 -21q-117 148 -319 148q-49 0 -88 30t-39 76q0 53 33.5 91t93.5 38zM643 1214q38 -37 48.5 -102t-2.5 -131t-31.5 -126.5t-35.5 -98.5l-18 -39q20 191 -125 330q-35 35 -42 81.5t24 83.5q23 23 53 34t65 3.5t64 -35.5z" />
    <glyph glyph-name=".notdef" 
d="M207 403q-13 0 -19 -2v-200q4 -2 19 -2q37 0 50 25t13 77q0 54 -13 78t-50 24zM518 330v-49h-82v-78h96v-49h-155v297h155v-52h-96v-69h82zM203 150q-47 0 -74 4v292q61 9 76 9q67 0 96 -37.5t29 -116.5t-29.5 -115t-97.5 -36zM586 451h80l39 -164l38 164h82
q3 -45 13 -297h-60q0 108 -6 213l-41 -168h-55l-41 168h-2q-4 -140 -4 -213h-58q3 156 15 297zM987 150q-60 0 -84 35.5t-24 115.5q0 81 24 117.5t84 36.5t85.5 -37t25.5 -117q0 -79 -25.5 -115t-85.5 -36zM987 403q-29 0 -39 -23.5t-10 -78.5q0 -54 10 -78t39 -24
q30 0 40.5 24t10.5 78q0 55 -10 78.5t-41 23.5zM967 1016q49 0 79.5 -24.5t39 -51t8.5 -53.5q0 -43 -34.5 -72.5t-72.5 -34.5q-213 -23 -340 -147q3 8 9 22t25 53.5t39 75.5t50 80.5t59.5 76t66 53.5t71.5 22zM285 909q39 0 78 -21t69.5 -55t58.5 -74.5t48 -81.5t35 -75
t22 -55l8 -21q-117 148 -319 148q-49 0 -88 30t-39 76q0 53 33.5 91t93.5 38zM643 1214q38 -37 48.5 -102t-2.5 -131t-31.5 -126.5t-35.5 -98.5l-18 -39q20 191 -125 330q-35 35 -42 81.5t24 83.5q23 23 53 34t65 3.5t64 -35.5z" />
    <glyph glyph-name=".null" horiz-adv-x="0" 
 />
    <glyph glyph-name="nonmarkingreturn" horiz-adv-x="682" 
 />
    <glyph glyph-name="space" unicode=" " horiz-adv-x="389" 
 />
    <glyph glyph-name="exclam" unicode="!" 
d="M207 403q-13 0 -19 -2v-200q4 -2 19 -2q37 0 50 25t13 77q0 54 -13 78t-50 24zM518 330v-49h-82v-78h96v-49h-155v297h155v-52h-96v-69h82zM203 150q-47 0 -74 4v292q61 9 76 9q67 0 96 -37.5t29 -116.5t-29.5 -115t-97.5 -36zM586 451h80l39 -164l38 164h82
q3 -45 13 -297h-60q0 108 -6 213l-41 -168h-55l-41 168h-2q-4 -140 -4 -213h-58q3 156 15 297zM987 150q-60 0 -84 35.5t-24 115.5q0 81 24 117.5t84 36.5t85.5 -37t25.5 -117q0 -79 -25.5 -115t-85.5 -36zM987 403q-29 0 -39 -23.5t-10 -78.5q0 -54 10 -78t39 -24
q30 0 40.5 24t10.5 78q0 55 -10 78.5t-41 23.5zM967 1016q49 0 79.5 -24.5t39 -51t8.5 -53.5q0 -43 -34.5 -72.5t-72.5 -34.5q-213 -23 -340 -147q3 8 9 22t25 53.5t39 75.5t50 80.5t59.5 76t66 53.5t71.5 22zM285 909q39 0 78 -21t69.5 -55t58.5 -74.5t48 -81.5t35 -75
t22 -55l8 -21q-117 148 -319 148q-49 0 -88 30t-39 76q0 53 33.5 91t93.5 38zM643 1214q38 -37 48.5 -102t-2.5 -131t-31.5 -126.5t-35.5 -98.5l-18 -39q20 191 -125 330q-35 35 -42 81.5t24 83.5q23 23 53 34t65 3.5t64 -35.5z" />
    <glyph glyph-name="quotedbl" unicode="&#x22;" 
d="M207 403q-13 0 -19 -2v-200q4 -2 19 -2q37 0 50 25t13 77q0 54 -13 78t-50 24zM518 330v-49h-82v-78h96v-49h-155v297h155v-52h-96v-69h82zM203 150q-47 0 -74 4v292q61 9 76 9q67 0 96 -37.5t29 -116.5t-29.5 -115t-97.5 -36zM586 451h80l39 -164l38 164h82
q3 -45 13 -297h-60q0 108 -6 213l-41 -168h-55l-41 168h-2q-4 -140 -4 -213h-58q3 156 15 297zM987 150q-60 0 -84 35.5t-24 115.5q0 81 24 117.5t84 36.5t85.5 -37t25.5 -117q0 -79 -25.5 -115t-85.5 -36zM987 403q-29 0 -39 -23.5t-10 -78.5q0 -54 10 -78t39 -24
q30 0 40.5 24t10.5 78q0 55 -10 78.5t-41 23.5zM967 1016q49 0 79.5 -24.5t39 -51t8.5 -53.5q0 -43 -34.5 -72.5t-72.5 -34.5q-213 -23 -340 -147q3 8 9 22t25 53.5t39 75.5t50 80.5t59.5 76t66 53.5t71.5 22zM285 909q39 0 78 -21t69.5 -55t58.5 -74.5t48 -81.5t35 -75
t22 -55l8 -21q-117 148 -319 148q-49 0 -88 30t-39 76q0 53 33.5 91t93.5 38zM643 1214q38 -37 48.5 -102t-2.5 -131t-31.5 -126.5t-35.5 -98.5l-18 -39q20 191 -125 330q-35 35 -42 81.5t24 83.5q23 23 53 34t65 3.5t64 -35.5z" />
    <glyph glyph-name="numbersign" unicode="#" 
d="M207 403q-13 0 -19 -2v-200q4 -2 19 -2q37 0 50 25t13 77q0 54 -13 78t-50 24zM518 330v-49h-82v-78h96v-49h-155v297h155v-52h-96v-69h82zM203 150q-47 0 -74 4v292q61 9 76 9q67 0 96 -37.5t29 -116.5t-29.5 -115t-97.5 -36zM586 451h80l39 -164l38 164h82
q3 -45 13 -297h-60q0 108 -6 213l-41 -168h-55l-41 168h-2q-4 -140 -4 -213h-58q3 156 15 297zM987 150q-60 0 -84 35.5t-24 115.5q0 81 24 117.5t84 36.5t85.5 -37t25.5 -117q0 -79 -25.5 -115t-85.5 -36zM987 403q-29 0 -39 -23.5t-10 -78.5q0 -54 10 -78t39 -24
q30 0 40.5 24t10.5 78q0 55 -10 78.5t-41 23.5zM967 1016q49 0 79.5 -24.5t39 -51t8.5 -53.5q0 -43 -34.5 -72.5t-72.5 -34.5q-213 -23 -340 -147q3 8 9 22t25 53.5t39 75.5t50 80.5t59.5 76t66 53.5t71.5 22zM285 909q39 0 78 -21t69.5 -55t58.5 -74.5t48 -81.5t35 -75
t22 -55l8 -21q-117 148 -319 148q-49 0 -88 30t-39 76q0 53 33.5 91t93.5 38zM643 1214q38 -37 48.5 -102t-2.5 -131t-31.5 -126.5t-35.5 -98.5l-18 -39q20 191 -125 330q-35 35 -42 81.5t24 83.5q23 23 53 34t65 3.5t64 -35.5z" />
    <glyph glyph-name="dollar" unicode="$" 
d="M207 403q-13 0 -19 -2v-200q4 -2 19 -2q37 0 50 25t13 77q0 54 -13 78t-50 24zM518 330v-49h-82v-78h96v-49h-155v297h155v-52h-96v-69h82zM203 150q-47 0 -74 4v292q61 9 76 9q67 0 96 -37.5t29 -116.5t-29.5 -115t-97.5 -36zM586 451h80l39 -164l38 164h82
q3 -45 13 -297h-60q0 108 -6 213l-41 -168h-55l-41 168h-2q-4 -140 -4 -213h-58q3 156 15 297zM987 150q-60 0 -84 35.5t-24 115.5q0 81 24 117.5t84 36.5t85.5 -37t25.5 -117q0 -79 -25.5 -115t-85.5 -36zM987 403q-29 0 -39 -23.5t-10 -78.5q0 -54 10 -78t39 -24
q30 0 40.5 24t10.5 78q0 55 -10 78.5t-41 23.5zM967 1016q49 0 79.5 -24.5t39 -51t8.5 -53.5q0 -43 -34.5 -72.5t-72.5 -34.5q-213 -23 -340 -147q3 8 9 22t25 53.5t39 75.5t50 80.5t59.5 76t66 53.5t71.5 22zM285 909q39 0 78 -21t69.5 -55t58.5 -74.5t48 -81.5t35 -75
t22 -55l8 -21q-117 148 -319 148q-49 0 -88 30t-39 76q0 53 33.5 91t93.5 38zM643 1214q38 -37 48.5 -102t-2.5 -131t-31.5 -126.5t-35.5 -98.5l-18 -39q20 191 -125 330q-35 35 -42 81.5t24 83.5q23 23 53 34t65 3.5t64 -35.5z" />
    <glyph glyph-name="percent" unicode="%" 
d="M207 403q-13 0 -19 -2v-200q4 -2 19 -2q37 0 50 25t13 77q0 54 -13 78t-50 24zM518 330v-49h-82v-78h96v-49h-155v297h155v-52h-96v-69h82zM203 150q-47 0 -74 4v292q61 9 76 9q67 0 96 -37.5t29 -116.5t-29.5 -115t-97.5 -36zM586 451h80l39 -164l38 164h82
q3 -45 13 -297h-60q0 108 -6 213l-41 -168h-55l-41 168h-2q-4 -140 -4 -213h-58q3 156 15 297zM987 150q-60 0 -84 35.5t-24 115.5q0 81 24 117.5t84 36.5t85.5 -37t25.5 -117q0 -79 -25.5 -115t-85.5 -36zM987 403q-29 0 -39 -23.5t-10 -78.5q0 -54 10 -78t39 -24
q30 0 40.5 24t10.5 78q0 55 -10 78.5t-41 23.5zM967 1016q49 0 79.5 -24.5t39 -51t8.5 -53.5q0 -43 -34.5 -72.5t-72.5 -34.5q-213 -23 -340 -147q3 8 9 22t25 53.5t39 75.5t50 80.5t59.5 76t66 53.5t71.5 22zM285 909q39 0 78 -21t69.5 -55t58.5 -74.5t48 -81.5t35 -75
t22 -55l8 -21q-117 148 -319 148q-49 0 -88 30t-39 76q0 53 33.5 91t93.5 38zM643 1214q38 -37 48.5 -102t-2.5 -131t-31.5 -126.5t-35.5 -98.5l-18 -39q20 191 -125 330q-35 35 -42 81.5t24 83.5q23 23 53 34t65 3.5t64 -35.5z" />
    <glyph glyph-name="ampersand" unicode="&#x26;" 
d="M207 403q-13 0 -19 -2v-200q4 -2 19 -2q37 0 50 25t13 77q0 54 -13 78t-50 24zM518 330v-49h-82v-78h96v-49h-155v297h155v-52h-96v-69h82zM203 150q-47 0 -74 4v292q61 9 76 9q67 0 96 -37.5t29 -116.5t-29.5 -115t-97.5 -36zM586 451h80l39 -164l38 164h82
q3 -45 13 -297h-60q0 108 -6 213l-41 -168h-55l-41 168h-2q-4 -140 -4 -213h-58q3 156 15 297zM987 150q-60 0 -84 35.5t-24 115.5q0 81 24 117.5t84 36.5t85.5 -37t25.5 -117q0 -79 -25.5 -115t-85.5 -36zM987 403q-29 0 -39 -23.5t-10 -78.5q0 -54 10 -78t39 -24
q30 0 40.5 24t10.5 78q0 55 -10 78.5t-41 23.5zM967 1016q49 0 79.5 -24.5t39 -51t8.5 -53.5q0 -43 -34.5 -72.5t-72.5 -34.5q-213 -23 -340 -147q3 8 9 22t25 53.5t39 75.5t50 80.5t59.5 76t66 53.5t71.5 22zM285 909q39 0 78 -21t69.5 -55t58.5 -74.5t48 -81.5t35 -75
t22 -55l8 -21q-117 148 -319 148q-49 0 -88 30t-39 76q0 53 33.5 91t93.5 38zM643 1214q38 -37 48.5 -102t-2.5 -131t-31.5 -126.5t-35.5 -98.5l-18 -39q20 191 -125 330q-35 35 -42 81.5t24 83.5q23 23 53 34t65 3.5t64 -35.5z" />
    <glyph glyph-name="quotesingle" unicode="'" 
d="M207 403q-13 0 -19 -2v-200q4 -2 19 -2q37 0 50 25t13 77q0 54 -13 78t-50 24zM518 330v-49h-82v-78h96v-49h-155v297h155v-52h-96v-69h82zM203 150q-47 0 -74 4v292q61 9 76 9q67 0 96 -37.5t29 -116.5t-29.5 -115t-97.5 -36zM586 451h80l39 -164l38 164h82
q3 -45 13 -297h-60q0 108 -6 213l-41 -168h-55l-41 168h-2q-4 -140 -4 -213h-58q3 156 15 297zM987 150q-60 0 -84 35.5t-24 115.5q0 81 24 117.5t84 36.5t85.5 -37t25.5 -117q0 -79 -25.5 -115t-85.5 -36zM987 403q-29 0 -39 -23.5t-10 -78.5q0 -54 10 -78t39 -24
q30 0 40.5 24t10.5 78q0 55 -10 78.5t-41 23.5zM967 1016q49 0 79.5 -24.5t39 -51t8.5 -53.5q0 -43 -34.5 -72.5t-72.5 -34.5q-213 -23 -340 -147q3 8 9 22t25 53.5t39 75.5t50 80.5t59.5 76t66 53.5t71.5 22zM285 909q39 0 78 -21t69.5 -55t58.5 -74.5t48 -81.5t35 -75
t22 -55l8 -21q-117 148 -319 148q-49 0 -88 30t-39 76q0 53 33.5 91t93.5 38zM643 1214q38 -37 48.5 -102t-2.5 -131t-31.5 -126.5t-35.5 -98.5l-18 -39q20 191 -125 330q-35 35 -42 81.5t24 83.5q23 23 53 34t65 3.5t64 -35.5z" />
    <glyph glyph-name="parenleft" unicode="(" 
d="M207 403q-13 0 -19 -2v-200q4 -2 19 -2q37 0 50 25t13 77q0 54 -13 78t-50 24zM518 330v-49h-82v-78h96v-49h-155v297h155v-52h-96v-69h82zM203 150q-47 0 -74 4v292q61 9 76 9q67 0 96 -37.5t29 -116.5t-29.5 -115t-97.5 -36zM586 451h80l39 -164l38 164h82
q3 -45 13 -297h-60q0 108 -6 213l-41 -168h-55l-41 168h-2q-4 -140 -4 -213h-58q3 156 15 297zM987 150q-60 0 -84 35.5t-24 115.5q0 81 24 117.5t84 36.5t85.5 -37t25.5 -117q0 -79 -25.5 -115t-85.5 -36zM987 403q-29 0 -39 -23.5t-10 -78.5q0 -54 10 -78t39 -24
q30 0 40.5 24t10.5 78q0 55 -10 78.5t-41 23.5zM967 1016q49 0 79.5 -24.5t39 -51t8.5 -53.5q0 -43 -34.5 -72.5t-72.5 -34.5q-213 -23 -340 -147q3 8 9 22t25 53.5t39 75.5t50 80.5t59.5 76t66 53.5t71.5 22zM285 909q39 0 78 -21t69.5 -55t58.5 -74.5t48 -81.5t35 -75
t22 -55l8 -21q-117 148 -319 148q-49 0 -88 30t-39 76q0 53 33.5 91t93.5 38zM643 1214q38 -37 48.5 -102t-2.5 -131t-31.5 -126.5t-35.5 -98.5l-18 -39q20 191 -125 330q-35 35 -42 81.5t24 83.5q23 23 53 34t65 3.5t64 -35.5z" />
    <glyph glyph-name="parenright" unicode=")" 
d="M207 403q-13 0 -19 -2v-200q4 -2 19 -2q37 0 50 25t13 77q0 54 -13 78t-50 24zM518 330v-49h-82v-78h96v-49h-155v297h155v-52h-96v-69h82zM203 150q-47 0 -74 4v292q61 9 76 9q67 0 96 -37.5t29 -116.5t-29.5 -115t-97.5 -36zM586 451h80l39 -164l38 164h82
q3 -45 13 -297h-60q0 108 -6 213l-41 -168h-55l-41 168h-2q-4 -140 -4 -213h-58q3 156 15 297zM987 150q-60 0 -84 35.5t-24 115.5q0 81 24 117.5t84 36.5t85.5 -37t25.5 -117q0 -79 -25.5 -115t-85.5 -36zM987 403q-29 0 -39 -23.5t-10 -78.5q0 -54 10 -78t39 -24
q30 0 40.5 24t10.5 78q0 55 -10 78.5t-41 23.5zM967 1016q49 0 79.5 -24.5t39 -51t8.5 -53.5q0 -43 -34.5 -72.5t-72.5 -34.5q-213 -23 -340 -147q3 8 9 22t25 53.5t39 75.5t50 80.5t59.5 76t66 53.5t71.5 22zM285 909q39 0 78 -21t69.5 -55t58.5 -74.5t48 -81.5t35 -75
t22 -55l8 -21q-117 148 -319 148q-49 0 -88 30t-39 76q0 53 33.5 91t93.5 38zM643 1214q38 -37 48.5 -102t-2.5 -131t-31.5 -126.5t-35.5 -98.5l-18 -39q20 191 -125 330q-35 35 -42 81.5t24 83.5q23 23 53 34t65 3.5t64 -35.5z" />
    <glyph glyph-name="asterisk" unicode="*" 
d="M207 403q-13 0 -19 -2v-200q4 -2 19 -2q37 0 50 25t13 77q0 54 -13 78t-50 24zM518 330v-49h-82v-78h96v-49h-155v297h155v-52h-96v-69h82zM203 150q-47 0 -74 4v292q61 9 76 9q67 0 96 -37.5t29 -116.5t-29.5 -115t-97.5 -36zM586 451h80l39 -164l38 164h82
q3 -45 13 -297h-60q0 108 -6 213l-41 -168h-55l-41 168h-2q-4 -140 -4 -213h-58q3 156 15 297zM987 150q-60 0 -84 35.5t-24 115.5q0 81 24 117.5t84 36.5t85.5 -37t25.5 -117q0 -79 -25.5 -115t-85.5 -36zM987 403q-29 0 -39 -23.5t-10 -78.5q0 -54 10 -78t39 -24
q30 0 40.5 24t10.5 78q0 55 -10 78.5t-41 23.5zM967 1016q49 0 79.5 -24.5t39 -51t8.5 -53.5q0 -43 -34.5 -72.5t-72.5 -34.5q-213 -23 -340 -147q3 8 9 22t25 53.5t39 75.5t50 80.5t59.5 76t66 53.5t71.5 22zM285 909q39 0 78 -21t69.5 -55t58.5 -74.5t48 -81.5t35 -75
t22 -55l8 -21q-117 148 -319 148q-49 0 -88 30t-39 76q0 53 33.5 91t93.5 38zM643 1214q38 -37 48.5 -102t-2.5 -131t-31.5 -126.5t-35.5 -98.5l-18 -39q20 191 -125 330q-35 35 -42 81.5t24 83.5q23 23 53 34t65 3.5t64 -35.5z" />
    <glyph glyph-name="plus" unicode="+" 
d="M207 403q-13 0 -19 -2v-200q4 -2 19 -2q37 0 50 25t13 77q0 54 -13 78t-50 24zM518 330v-49h-82v-78h96v-49h-155v297h155v-52h-96v-69h82zM203 150q-47 0 -74 4v292q61 9 76 9q67 0 96 -37.5t29 -116.5t-29.5 -115t-97.5 -36zM586 451h80l39 -164l38 164h82
q3 -45 13 -297h-60q0 108 -6 213l-41 -168h-55l-41 168h-2q-4 -140 -4 -213h-58q3 156 15 297zM987 150q-60 0 -84 35.5t-24 115.5q0 81 24 117.5t84 36.5t85.5 -37t25.5 -117q0 -79 -25.5 -115t-85.5 -36zM987 403q-29 0 -39 -23.5t-10 -78.5q0 -54 10 -78t39 -24
q30 0 40.5 24t10.5 78q0 55 -10 78.5t-41 23.5zM967 1016q49 0 79.5 -24.5t39 -51t8.5 -53.5q0 -43 -34.5 -72.5t-72.5 -34.5q-213 -23 -340 -147q3 8 9 22t25 53.5t39 75.5t50 80.5t59.5 76t66 53.5t71.5 22zM285 909q39 0 78 -21t69.5 -55t58.5 -74.5t48 -81.5t35 -75
t22 -55l8 -21q-117 148 -319 148q-49 0 -88 30t-39 76q0 53 33.5 91t93.5 38zM643 1214q38 -37 48.5 -102t-2.5 -131t-31.5 -126.5t-35.5 -98.5l-18 -39q20 191 -125 330q-35 35 -42 81.5t24 83.5q23 23 53 34t65 3.5t64 -35.5z" />
    <glyph glyph-name="comma" unicode="," horiz-adv-x="471" 
d="M121 -221h-203l246 442h203z" />
    <glyph glyph-name="hyphen" unicode="-" 
d="M207 403q-13 0 -19 -2v-200q4 -2 19 -2q37 0 50 25t13 77q0 54 -13 78t-50 24zM518 330v-49h-82v-78h96v-49h-155v297h155v-52h-96v-69h82zM203 150q-47 0 -74 4v292q61 9 76 9q67 0 96 -37.5t29 -116.5t-29.5 -115t-97.5 -36zM586 451h80l39 -164l38 164h82
q3 -45 13 -297h-60q0 108 -6 213l-41 -168h-55l-41 168h-2q-4 -140 -4 -213h-58q3 156 15 297zM987 150q-60 0 -84 35.5t-24 115.5q0 81 24 117.5t84 36.5t85.5 -37t25.5 -117q0 -79 -25.5 -115t-85.5 -36zM987 403q-29 0 -39 -23.5t-10 -78.5q0 -54 10 -78t39 -24
q30 0 40.5 24t10.5 78q0 55 -10 78.5t-41 23.5zM967 1016q49 0 79.5 -24.5t39 -51t8.5 -53.5q0 -43 -34.5 -72.5t-72.5 -34.5q-213 -23 -340 -147q3 8 9 22t25 53.5t39 75.5t50 80.5t59.5 76t66 53.5t71.5 22zM285 909q39 0 78 -21t69.5 -55t58.5 -74.5t48 -81.5t35 -75
t22 -55l8 -21q-117 148 -319 148q-49 0 -88 30t-39 76q0 53 33.5 91t93.5 38zM643 1214q38 -37 48.5 -102t-2.5 -131t-31.5 -126.5t-35.5 -98.5l-18 -39q20 191 -125 330q-35 35 -42 81.5t24 83.5q23 23 53 34t65 3.5t64 -35.5z" />
    <glyph glyph-name="period" unicode="." horiz-adv-x="403" 
d="M127 -10q-58 0 -92.5 35.5t-34.5 87.5q0 53 34.5 89t92.5 36q59 0 93 -36t34 -89q0 -52 -34 -87.5t-93 -35.5z" />
    <glyph glyph-name="slash" unicode="/" 
d="M207 403q-13 0 -19 -2v-200q4 -2 19 -2q37 0 50 25t13 77q0 54 -13 78t-50 24zM518 330v-49h-82v-78h96v-49h-155v297h155v-52h-96v-69h82zM203 150q-47 0 -74 4v292q61 9 76 9q67 0 96 -37.5t29 -116.5t-29.5 -115t-97.5 -36zM586 451h80l39 -164l38 164h82
q3 -45 13 -297h-60q0 108 -6 213l-41 -168h-55l-41 168h-2q-4 -140 -4 -213h-58q3 156 15 297zM987 150q-60 0 -84 35.5t-24 115.5q0 81 24 117.5t84 36.5t85.5 -37t25.5 -117q0 -79 -25.5 -115t-85.5 -36zM987 403q-29 0 -39 -23.5t-10 -78.5q0 -54 10 -78t39 -24
q30 0 40.5 24t10.5 78q0 55 -10 78.5t-41 23.5zM967 1016q49 0 79.5 -24.5t39 -51t8.5 -53.5q0 -43 -34.5 -72.5t-72.5 -34.5q-213 -23 -340 -147q3 8 9 22t25 53.5t39 75.5t50 80.5t59.5 76t66 53.5t71.5 22zM285 909q39 0 78 -21t69.5 -55t58.5 -74.5t48 -81.5t35 -75
t22 -55l8 -21q-117 148 -319 148q-49 0 -88 30t-39 76q0 53 33.5 91t93.5 38zM643 1214q38 -37 48.5 -102t-2.5 -131t-31.5 -126.5t-35.5 -98.5l-18 -39q20 191 -125 330q-35 35 -42 81.5t24 83.5q23 23 53 34t65 3.5t64 -35.5z" />
    <glyph glyph-name="zero" unicode="0" horiz-adv-x="1474" 
d="M649 -31q-131 0 -233.5 44t-168.5 123t-100 186.5t-34 236.5q0 177 57 341t157 289t247 200t317 75q131 0 233 -43.5t167 -122t98.5 -184.5t33.5 -235q0 -143 -35 -278t-103 -249t-160.5 -200t-215.5 -134.5t-260 -48.5zM670 174q120 0 222 59t168 156.5t103 219
t37 249.5q0 186 -82.5 294t-247.5 108q-120 0 -222 -59.5t-169.5 -156.5t-105 -219t-37.5 -250q0 -182 85 -291.5t249 -109.5z" />
    <glyph glyph-name="one" unicode="1" horiz-adv-x="630" 
d="M647 1434l-254 -1434h-223l219 1233h-205l52 201h411z" />
    <glyph glyph-name="two" unicode="2" horiz-adv-x="1302" 
d="M1083 0h-1056l36 199l682 463q41 28 58 40t51.5 37t49.5 38t41 37t38 40.5t28.5 40.5t23.5 45.5t12.5 48.5t5.5 55q0 108 -70.5 164t-206.5 56q-345 0 -383 -344h-221q33 273 194.5 408.5t438.5 135.5q239 0 357 -96.5t118 -275.5q0 -84 -25 -157t-78 -139.5t-120.5 -125
t-167.5 -127.5l-352 -244l-154 -102h735z" />
    <glyph glyph-name="three" unicode="3" horiz-adv-x="1296" 
d="M541 -31q-264 0 -389 131t-70 373h221q-36 -143 41.5 -221t235.5 -78q171 0 278 87t107 226q0 65 -24 112t-65.5 73t-88.5 37.5t-101 11.5q-78 0 -174 -21l29 160l444 373h-700l49 201h940l-35 -191l-434 -373q82 -5 150 -29.5t121.5 -68t83.5 -113.5t30 -159
q0 -156 -83.5 -277.5t-231 -187.5t-334.5 -66z" />
    <glyph glyph-name="four" unicode="4" 
d="M207 403q-13 0 -19 -2v-200q4 -2 19 -2q37 0 50 25t13 77q0 54 -13 78t-50 24zM518 330v-49h-82v-78h96v-49h-155v297h155v-52h-96v-69h82zM203 150q-47 0 -74 4v292q61 9 76 9q67 0 96 -37.5t29 -116.5t-29.5 -115t-97.5 -36zM586 451h80l39 -164l38 164h82
q3 -45 13 -297h-60q0 108 -6 213l-41 -168h-55l-41 168h-2q-4 -140 -4 -213h-58q3 156 15 297zM987 150q-60 0 -84 35.5t-24 115.5q0 81 24 117.5t84 36.5t85.5 -37t25.5 -117q0 -79 -25.5 -115t-85.5 -36zM987 403q-29 0 -39 -23.5t-10 -78.5q0 -54 10 -78t39 -24
q30 0 40.5 24t10.5 78q0 55 -10 78.5t-41 23.5zM967 1016q49 0 79.5 -24.5t39 -51t8.5 -53.5q0 -43 -34.5 -72.5t-72.5 -34.5q-213 -23 -340 -147q3 8 9 22t25 53.5t39 75.5t50 80.5t59.5 76t66 53.5t71.5 22zM285 909q39 0 78 -21t69.5 -55t58.5 -74.5t48 -81.5t35 -75
t22 -55l8 -21q-117 148 -319 148q-49 0 -88 30t-39 76q0 53 33.5 91t93.5 38zM643 1214q38 -37 48.5 -102t-2.5 -131t-31.5 -126.5t-35.5 -98.5l-18 -39q20 191 -125 330q-35 35 -42 81.5t24 83.5q23 23 53 34t65 3.5t64 -35.5z" />
    <glyph glyph-name="five" unicode="5" horiz-adv-x="1292" 
d="M532 -31q-262 0 -383.5 132t-66.5 372h221q-35 -142 36 -221.5t230 -79.5q185 0 291.5 101.5t106.5 263.5q0 122 -68.5 183.5t-212.5 61.5q-121 0 -204.5 -40t-116.5 -91h-213l139 783h962l-36 -195h-738l-67 -369q122 93 338 93q120 0 207.5 -30.5t137.5 -86.5
t73.5 -126.5t23.5 -158.5q0 -265 -181.5 -428.5t-478.5 -163.5z" />
    <glyph glyph-name="six" unicode="6" horiz-adv-x="1304" 
d="M766 989q220 0 332 -111.5t112 -299.5q0 -128 -50 -241t-137 -193.5t-210 -127.5t-264 -47q-228 0 -350.5 114.5t-122.5 307.5q0 275 264 529l534 514h267l-479 -453q44 8 104 8zM586 174q178 0 288.5 108t110.5 267q0 120 -72.5 185t-212.5 65q-178 0 -288.5 -107
t-110.5 -266q0 -119 73 -185.5t212 -66.5z" />
    <glyph glyph-name="seven" unicode="7" horiz-adv-x="1331" 
d="M1438 1434l-1123 -1434h-243l977 1235h-854l36 199h1207z" />
    <glyph glyph-name="eight" unicode="8" horiz-adv-x="1335" 
d="M569 -31q-242 0 -367.5 99.5t-125.5 269.5q0 146 90 260t248 166q-72 41 -113 110.5t-41 161.5q0 127 73.5 225t202.5 150.5t293 52.5q212 0 323.5 -90t111.5 -241q0 -117 -67 -213t-193 -156q206 -78 206 -307q0 -147 -84 -259t-228.5 -170.5t-328.5 -58.5zM721 836
q142 0 236 72.5t94 185.5q0 94 -68 141t-186 47q-146 0 -238 -68.5t-92 -181.5q0 -95 68 -145.5t186 -50.5zM600 160q166 0 275.5 81.5t109.5 219.5q0 219 -287 219q-174 0 -282.5 -79t-108.5 -214q0 -114 79 -170.5t214 -56.5z" />
    <glyph glyph-name="nine" unicode="9" horiz-adv-x="1304" 
d="M821 1464q228 0 350.5 -114.5t122.5 -307.5q0 -274 -264 -528l-534 -514h-267l480 453q-49 -9 -105 -9q-219 0 -331.5 112t-112.5 300q0 171 85 310t236.5 218.5t339.5 79.5zM670 635q178 0 288.5 107t110.5 266q0 119 -73 185.5t-212 66.5q-178 0 -288.5 -108
t-110.5 -267q0 -120 72.5 -185t212.5 -65z" />
    <glyph glyph-name="colon" unicode=":" horiz-adv-x="405" 
d="M281 848q-60 0 -94.5 35t-34.5 88q0 52 35 88.5t94 36.5q58 0 92.5 -36.5t34.5 -88.5q0 -53 -34.5 -88t-92.5 -35zM127 -10q-58 0 -92.5 35.5t-34.5 87.5q0 53 34.5 89t92.5 36q59 0 93 -36t34 -89q0 -52 -34 -87.5t-93 -35.5z" />
    <glyph glyph-name="semicolon" unicode=";" horiz-adv-x="516" 
d="M412 848q-58 0 -92.5 35t-34.5 88q0 52 34.5 88.5t92.5 36.5t92.5 -36.5t34.5 -88.5q0 -53 -34.5 -88t-92.5 -35zM121 -221h-203l246 442h203z" />
    <glyph glyph-name="less" unicode="&#x3c;" 
d="M207 403q-13 0 -19 -2v-200q4 -2 19 -2q37 0 50 25t13 77q0 54 -13 78t-50 24zM518 330v-49h-82v-78h96v-49h-155v297h155v-52h-96v-69h82zM203 150q-47 0 -74 4v292q61 9 76 9q67 0 96 -37.5t29 -116.5t-29.5 -115t-97.5 -36zM586 451h80l39 -164l38 164h82
q3 -45 13 -297h-60q0 108 -6 213l-41 -168h-55l-41 168h-2q-4 -140 -4 -213h-58q3 156 15 297zM987 150q-60 0 -84 35.5t-24 115.5q0 81 24 117.5t84 36.5t85.5 -37t25.5 -117q0 -79 -25.5 -115t-85.5 -36zM987 403q-29 0 -39 -23.5t-10 -78.5q0 -54 10 -78t39 -24
q30 0 40.5 24t10.5 78q0 55 -10 78.5t-41 23.5zM967 1016q49 0 79.5 -24.5t39 -51t8.5 -53.5q0 -43 -34.5 -72.5t-72.5 -34.5q-213 -23 -340 -147q3 8 9 22t25 53.5t39 75.5t50 80.5t59.5 76t66 53.5t71.5 22zM285 909q39 0 78 -21t69.5 -55t58.5 -74.5t48 -81.5t35 -75
t22 -55l8 -21q-117 148 -319 148q-49 0 -88 30t-39 76q0 53 33.5 91t93.5 38zM643 1214q38 -37 48.5 -102t-2.5 -131t-31.5 -126.5t-35.5 -98.5l-18 -39q20 191 -125 330q-35 35 -42 81.5t24 83.5q23 23 53 34t65 3.5t64 -35.5z" />
    <glyph glyph-name="equal" unicode="=" 
d="M207 403q-13 0 -19 -2v-200q4 -2 19 -2q37 0 50 25t13 77q0 54 -13 78t-50 24zM518 330v-49h-82v-78h96v-49h-155v297h155v-52h-96v-69h82zM203 150q-47 0 -74 4v292q61 9 76 9q67 0 96 -37.5t29 -116.5t-29.5 -115t-97.5 -36zM586 451h80l39 -164l38 164h82
q3 -45 13 -297h-60q0 108 -6 213l-41 -168h-55l-41 168h-2q-4 -140 -4 -213h-58q3 156 15 297zM987 150q-60 0 -84 35.5t-24 115.5q0 81 24 117.5t84 36.5t85.5 -37t25.5 -117q0 -79 -25.5 -115t-85.5 -36zM987 403q-29 0 -39 -23.5t-10 -78.5q0 -54 10 -78t39 -24
q30 0 40.5 24t10.5 78q0 55 -10 78.5t-41 23.5zM967 1016q49 0 79.5 -24.5t39 -51t8.5 -53.5q0 -43 -34.5 -72.5t-72.5 -34.5q-213 -23 -340 -147q3 8 9 22t25 53.5t39 75.5t50 80.5t59.5 76t66 53.5t71.5 22zM285 909q39 0 78 -21t69.5 -55t58.5 -74.5t48 -81.5t35 -75
t22 -55l8 -21q-117 148 -319 148q-49 0 -88 30t-39 76q0 53 33.5 91t93.5 38zM643 1214q38 -37 48.5 -102t-2.5 -131t-31.5 -126.5t-35.5 -98.5l-18 -39q20 191 -125 330q-35 35 -42 81.5t24 83.5q23 23 53 34t65 3.5t64 -35.5z" />
    <glyph glyph-name="greater" unicode="&#x3e;" 
d="M207 403q-13 0 -19 -2v-200q4 -2 19 -2q37 0 50 25t13 77q0 54 -13 78t-50 24zM518 330v-49h-82v-78h96v-49h-155v297h155v-52h-96v-69h82zM203 150q-47 0 -74 4v292q61 9 76 9q67 0 96 -37.5t29 -116.5t-29.5 -115t-97.5 -36zM586 451h80l39 -164l38 164h82
q3 -45 13 -297h-60q0 108 -6 213l-41 -168h-55l-41 168h-2q-4 -140 -4 -213h-58q3 156 15 297zM987 150q-60 0 -84 35.5t-24 115.5q0 81 24 117.5t84 36.5t85.5 -37t25.5 -117q0 -79 -25.5 -115t-85.5 -36zM987 403q-29 0 -39 -23.5t-10 -78.5q0 -54 10 -78t39 -24
q30 0 40.5 24t10.5 78q0 55 -10 78.5t-41 23.5zM967 1016q49 0 79.5 -24.5t39 -51t8.5 -53.5q0 -43 -34.5 -72.5t-72.5 -34.5q-213 -23 -340 -147q3 8 9 22t25 53.5t39 75.5t50 80.5t59.5 76t66 53.5t71.5 22zM285 909q39 0 78 -21t69.5 -55t58.5 -74.5t48 -81.5t35 -75
t22 -55l8 -21q-117 148 -319 148q-49 0 -88 30t-39 76q0 53 33.5 91t93.5 38zM643 1214q38 -37 48.5 -102t-2.5 -131t-31.5 -126.5t-35.5 -98.5l-18 -39q20 191 -125 330q-35 35 -42 81.5t24 83.5q23 23 53 34t65 3.5t64 -35.5z" />
    <glyph glyph-name="question" unicode="?" horiz-adv-x="1363" 
d="M715 346h-215q9 63 18.5 102.5t30 83t52.5 74t83.5 61.5t124.5 58l68 25q258 93 258 301q0 109 -76 163t-240 54q-200 0 -309.5 -83.5t-132.5 -266.5h-215q32 283 199 414.5t470 131.5q271 0 398 -100.5t127 -298.5q0 -163 -83.5 -270t-256.5 -174l-84 -33
q-111 -43 -154.5 -96.5t-62.5 -145.5zM580 -10q-59 0 -93 35.5t-34 87.5q0 53 34 89t93 36q58 0 92.5 -36t34.5 -89q0 -52 -34.5 -87.5t-92.5 -35.5z" />
    <glyph glyph-name="at" unicode="@" 
d="M207 403q-13 0 -19 -2v-200q4 -2 19 -2q37 0 50 25t13 77q0 54 -13 78t-50 24zM518 330v-49h-82v-78h96v-49h-155v297h155v-52h-96v-69h82zM203 150q-47 0 -74 4v292q61 9 76 9q67 0 96 -37.5t29 -116.5t-29.5 -115t-97.5 -36zM586 451h80l39 -164l38 164h82
q3 -45 13 -297h-60q0 108 -6 213l-41 -168h-55l-41 168h-2q-4 -140 -4 -213h-58q3 156 15 297zM987 150q-60 0 -84 35.5t-24 115.5q0 81 24 117.5t84 36.5t85.5 -37t25.5 -117q0 -79 -25.5 -115t-85.5 -36zM987 403q-29 0 -39 -23.5t-10 -78.5q0 -54 10 -78t39 -24
q30 0 40.5 24t10.5 78q0 55 -10 78.5t-41 23.5zM967 1016q49 0 79.5 -24.5t39 -51t8.5 -53.5q0 -43 -34.5 -72.5t-72.5 -34.5q-213 -23 -340 -147q3 8 9 22t25 53.5t39 75.5t50 80.5t59.5 76t66 53.5t71.5 22zM285 909q39 0 78 -21t69.5 -55t58.5 -74.5t48 -81.5t35 -75
t22 -55l8 -21q-117 148 -319 148q-49 0 -88 30t-39 76q0 53 33.5 91t93.5 38zM643 1214q38 -37 48.5 -102t-2.5 -131t-31.5 -126.5t-35.5 -98.5l-18 -39q20 191 -125 330q-35 35 -42 81.5t24 83.5q23 23 53 34t65 3.5t64 -35.5z" />
    <glyph glyph-name="A" unicode="A" horiz-adv-x="1619" 
d="M1475 0h-232l-61 229h-846l-141 -229h-238l895 1434h235zM926 1184l-477 -772h684z" />
    <glyph glyph-name="B" unicode="B" horiz-adv-x="1531" 
d="M1206 721q207 -70 207 -299q0 -199 -149.5 -310.5t-401.5 -111.5h-813l254 1434h764q116 0 200.5 -25t133.5 -72t71.5 -106.5t22.5 -134.5q0 -138 -74.5 -232.5t-214.5 -142.5zM1024 1241h-532l-76 -428h520q157 0 245.5 65t88.5 185q0 94 -60 136t-186 42zM307 193h545
q162 0 254 70t92 194q0 95 -61.5 138.5t-194.5 43.5h-557z" />
    <glyph glyph-name="C" unicode="C" horiz-adv-x="1652" 
d="M770 -31q-312 0 -482.5 170t-170.5 457q0 178 67.5 337.5t185 276.5t285.5 185.5t359 68.5q274 0 437 -138t169 -392h-217q-22 165 -131 244t-281 79q-190 0 -338.5 -87t-227.5 -232t-79 -320q0 -208 117 -326t340 -118q174 0 308.5 80t213.5 246h219
q-94 -257 -297.5 -394t-476.5 -137z" />
    <glyph glyph-name="D" unicode="D" horiz-adv-x="1638" 
d="M719 0h-670l254 1434h653q303 0 461 -152.5t158 -437.5q0 -182 -60.5 -337.5t-170 -267.5t-270.5 -175.5t-355 -63.5zM492 1235l-183 -1036h418q148 0 267.5 49.5t197 136t119 202.5t41.5 251q0 203 -104.5 300t-323.5 97h-432z" />
    <glyph glyph-name="E" unicode="E" horiz-adv-x="1427" 
d="M1503 1434l-37 -197h-974l-78 -440h934l-33 -179h-934l-74 -421h979l-37 -197h-1200l254 1434h1200z" />
    <glyph glyph-name="F" unicode="F" horiz-adv-x="1423" 
d="M1501 1434l-37 -199h-972l-84 -477h919l-35 -193h-919l-101 -565h-223l254 1434h1198z" />
    <glyph glyph-name="G" unicode="G" horiz-adv-x="1675" 
d="M799 -31q-326 0 -504 170.5t-178 458.5q0 176 67.5 335.5t184 276t283.5 185.5t356 69q269 0 428.5 -134.5t165.5 -375.5h-218q-20 153 -124.5 229.5t-274.5 76.5q-188 0 -335.5 -87t-225.5 -231.5t-78 -318.5q0 -209 124.5 -333t365.5 -124q122 0 239 36t205 115l43 250
h-479l30 172h693l-88 -503q-69 -74 -156 -128.5t-178 -83.5t-176 -42t-170 -13z" />
    <glyph glyph-name="H" unicode="H" horiz-adv-x="1638" 
d="M1311 768l119 666h223l-254 -1434h-223l102 578h-903l-103 -578h-223l254 1434h223l-118 -666h903z" />
    <glyph glyph-name="I" unicode="I" horiz-adv-x="512" 
d="M272 0h-223l254 1434h223z" />
    <glyph glyph-name="J" unicode="J" horiz-adv-x="1497" 
d="M635 -31q-337 0 -464.5 146t-72.5 448h221q-35 -206 45 -297.5t298 -91.5q118 0 201.5 24t138.5 76t87 123t50 174l151 863h223l-155 -879q-54 -307 -224.5 -446.5t-498.5 -139.5z" />
    <glyph glyph-name="K" unicode="K" horiz-adv-x="1626" 
d="M1423 1434h269l-695 -699l484 -735h-254l-381 582l-578 -582h-219l254 1434h219l-198 -1125z" />
    <glyph glyph-name="L" unicode="L" horiz-adv-x="1402" 
d="M526 1434l-219 -1235h944l-34 -199h-1168l254 1434h223z" />
    <glyph glyph-name="M" unicode="M" horiz-adv-x="1982" 
d="M270 0h-221l254 1434h367l256 -1223h20l678 1223h375l-254 -1434h-221l213 1212h-23l-680 -1212h-266l-260 1212h-23z" />
    <glyph glyph-name="N" unicode="N" horiz-adv-x="1615" 
d="M272 0h-223l254 1434h322l553 -1203h20l37 222l174 981h223l-254 -1434h-323l-551 1202h-21l-37 -221z" />
    <glyph glyph-name="O" unicode="O" horiz-adv-x="1714" 
d="M764 -31q-207 0 -355 82t-220 221t-72 320q0 179 69.5 340.5t189 278t287 185t355.5 68.5q206 0 353.5 -81t219.5 -219.5t72 -319.5q0 -180 -69 -341.5t-187.5 -279t-286 -186t-356.5 -68.5zM788 174q141 0 263.5 52t206.5 140.5t132 207t48 249.5q0 200 -113.5 318.5
t-331.5 118.5q-140 0 -262 -52.5t-207 -140.5t-133.5 -207t-48.5 -250q0 -200 114 -318t332 -118z" />
    <glyph glyph-name="P" unicode="P" horiz-adv-x="1597" 
d="M1071 1434q245 0 361 -120.5t116 -342.5q0 -191 -75.5 -336.5t-226 -229t-357.5 -83.5h-559l-58 -322h-223l254 1434h768zM365 520h509q219 0 336 119t117 313q0 152 -78.5 217.5t-236.5 65.5h-520z" />
    <glyph glyph-name="Q" unicode="Q" horiz-adv-x="1714" 
d="M1663 844q0 -226 -103 -417t-287 -311.5t-413 -142.5l-47 -270h-199l48 272q-261 29 -403 196.5t-142 420.5q0 179 69.5 340.5t189 278t287 185t355.5 68.5q206 0 353.5 -81t219.5 -219.5t72 -319.5zM961 545l-64 -363q160 24 284 116.5t190.5 229.5t66.5 295
q0 200 -113.5 318.5t-331.5 118.5q-140 0 -262 -52.5t-207 -140.5t-133.5 -207t-48.5 -250q0 -178 90 -292t266 -138l64 365h199z" />
    <glyph glyph-name="R" unicode="R" horiz-adv-x="1544" 
d="M1536 1026q0 -190 -97 -324.5t-272 -191.5l199 -510h-221l-182 473q-16 -2 -52 -2h-555l-84 -471h-223l254 1434h768q240 0 352.5 -107t112.5 -301zM391 672h506q203 0 309.5 84.5t106.5 249.5q0 69 -19 114t-60 70t-94.5 35t-131.5 10h-516z" />
    <glyph glyph-name="S" unicode="S" horiz-adv-x="1476" 
d="M633 -31h-2q-107 0 -194 12t-162 41.5t-123 76t-71.5 118t-14.5 164.5h202q1 -65 32.5 -110.5t88 -69t121 -33.5t147.5 -10q478 0 478 282q0 102 -69 141.5t-235 55.5l-163 16q-234 24 -351.5 109.5t-117.5 259.5q0 223 180.5 332.5t494.5 109.5q133 0 235 -20.5
t181 -66.5t115.5 -127.5t24.5 -196.5h-201q-2 63 -30.5 107.5t-81 68.5t-116 34.5t-147.5 10.5q-206 0 -318 -60t-112 -184q0 -98 73.5 -139t237.5 -57l166 -17q241 -24 350 -105t109 -257q0 -127 -54 -221.5t-153 -151.5t-229 -85t-291 -28z" />
    <glyph glyph-name="T" unicode="T" horiz-adv-x="1476" 
d="M231 1434h1334l-37 -199h-555l-217 -1235h-224l218 1235h-555z" />
    <glyph glyph-name="U" unicode="U" horiz-adv-x="1589" 
d="M711 -31q-328 0 -469 164.5t-86 468.5l147 832h217l-143 -850q-35 -204 48 -307t300 -103q431 0 508 426l147 834h224l-150 -848q-54 -304 -240 -460.5t-503 -156.5z" />
    <glyph glyph-name="V" unicode="V" horiz-adv-x="1619" 
d="M760 250l731 1184h238l-893 -1434h-236l-389 1434h231z" />
    <glyph glyph-name="W" unicode="W" horiz-adv-x="2451" 
d="M1735 272l594 1162h231l-735 -1434h-248l-242 1161l-645 -1161h-246l-233 1434h229l183 -1164l647 1164h221z" />
    <glyph glyph-name="X" unicode="X" horiz-adv-x="1599" 
d="M242 0h-285l727 719l-463 715h266l363 -570l569 570h285l-719 -717l467 -717h-266l-371 569z" />
    <glyph glyph-name="Y" unicode="Y" horiz-adv-x="1628" 
d="M1497 1434h240l-844 -1098l-59 -336h-224l62 356l-461 1078h233l369 -871h12z" />
    <glyph glyph-name="Z" unicode="Z" horiz-adv-x="1544" 
d="M1305 0h-1254l33 197l1161 1040h-956l33 197h1237l-35 -199l-1157 -1038h974z" />
    <glyph glyph-name="bracketleft" unicode="[" 
d="M207 403q-13 0 -19 -2v-200q4 -2 19 -2q37 0 50 25t13 77q0 54 -13 78t-50 24zM518 330v-49h-82v-78h96v-49h-155v297h155v-52h-96v-69h82zM203 150q-47 0 -74 4v292q61 9 76 9q67 0 96 -37.5t29 -116.5t-29.5 -115t-97.5 -36zM586 451h80l39 -164l38 164h82
q3 -45 13 -297h-60q0 108 -6 213l-41 -168h-55l-41 168h-2q-4 -140 -4 -213h-58q3 156 15 297zM987 150q-60 0 -84 35.5t-24 115.5q0 81 24 117.5t84 36.5t85.5 -37t25.5 -117q0 -79 -25.5 -115t-85.5 -36zM987 403q-29 0 -39 -23.5t-10 -78.5q0 -54 10 -78t39 -24
q30 0 40.5 24t10.5 78q0 55 -10 78.5t-41 23.5zM967 1016q49 0 79.5 -24.5t39 -51t8.5 -53.5q0 -43 -34.5 -72.5t-72.5 -34.5q-213 -23 -340 -147q3 8 9 22t25 53.5t39 75.5t50 80.5t59.5 76t66 53.5t71.5 22zM285 909q39 0 78 -21t69.5 -55t58.5 -74.5t48 -81.5t35 -75
t22 -55l8 -21q-117 148 -319 148q-49 0 -88 30t-39 76q0 53 33.5 91t93.5 38zM643 1214q38 -37 48.5 -102t-2.5 -131t-31.5 -126.5t-35.5 -98.5l-18 -39q20 191 -125 330q-35 35 -42 81.5t24 83.5q23 23 53 34t65 3.5t64 -35.5z" />
    <glyph glyph-name="backslash" unicode="\" 
d="M207 403q-13 0 -19 -2v-200q4 -2 19 -2q37 0 50 25t13 77q0 54 -13 78t-50 24zM518 330v-49h-82v-78h96v-49h-155v297h155v-52h-96v-69h82zM203 150q-47 0 -74 4v292q61 9 76 9q67 0 96 -37.5t29 -116.5t-29.5 -115t-97.5 -36zM586 451h80l39 -164l38 164h82
q3 -45 13 -297h-60q0 108 -6 213l-41 -168h-55l-41 168h-2q-4 -140 -4 -213h-58q3 156 15 297zM987 150q-60 0 -84 35.5t-24 115.5q0 81 24 117.5t84 36.5t85.5 -37t25.5 -117q0 -79 -25.5 -115t-85.5 -36zM987 403q-29 0 -39 -23.5t-10 -78.5q0 -54 10 -78t39 -24
q30 0 40.5 24t10.5 78q0 55 -10 78.5t-41 23.5zM967 1016q49 0 79.5 -24.5t39 -51t8.5 -53.5q0 -43 -34.5 -72.5t-72.5 -34.5q-213 -23 -340 -147q3 8 9 22t25 53.5t39 75.5t50 80.5t59.5 76t66 53.5t71.5 22zM285 909q39 0 78 -21t69.5 -55t58.5 -74.5t48 -81.5t35 -75
t22 -55l8 -21q-117 148 -319 148q-49 0 -88 30t-39 76q0 53 33.5 91t93.5 38zM643 1214q38 -37 48.5 -102t-2.5 -131t-31.5 -126.5t-35.5 -98.5l-18 -39q20 191 -125 330q-35 35 -42 81.5t24 83.5q23 23 53 34t65 3.5t64 -35.5z" />
    <glyph glyph-name="bracketright" unicode="]" 
d="M207 403q-13 0 -19 -2v-200q4 -2 19 -2q37 0 50 25t13 77q0 54 -13 78t-50 24zM518 330v-49h-82v-78h96v-49h-155v297h155v-52h-96v-69h82zM203 150q-47 0 -74 4v292q61 9 76 9q67 0 96 -37.5t29 -116.5t-29.5 -115t-97.5 -36zM586 451h80l39 -164l38 164h82
q3 -45 13 -297h-60q0 108 -6 213l-41 -168h-55l-41 168h-2q-4 -140 -4 -213h-58q3 156 15 297zM987 150q-60 0 -84 35.5t-24 115.5q0 81 24 117.5t84 36.5t85.5 -37t25.5 -117q0 -79 -25.5 -115t-85.5 -36zM987 403q-29 0 -39 -23.5t-10 -78.5q0 -54 10 -78t39 -24
q30 0 40.5 24t10.5 78q0 55 -10 78.5t-41 23.5zM967 1016q49 0 79.5 -24.5t39 -51t8.5 -53.5q0 -43 -34.5 -72.5t-72.5 -34.5q-213 -23 -340 -147q3 8 9 22t25 53.5t39 75.5t50 80.5t59.5 76t66 53.5t71.5 22zM285 909q39 0 78 -21t69.5 -55t58.5 -74.5t48 -81.5t35 -75
t22 -55l8 -21q-117 148 -319 148q-49 0 -88 30t-39 76q0 53 33.5 91t93.5 38zM643 1214q38 -37 48.5 -102t-2.5 -131t-31.5 -126.5t-35.5 -98.5l-18 -39q20 191 -125 330q-35 35 -42 81.5t24 83.5q23 23 53 34t65 3.5t64 -35.5z" />
    <glyph glyph-name="asciicircum" unicode="^" 
d="M207 403q-13 0 -19 -2v-200q4 -2 19 -2q37 0 50 25t13 77q0 54 -13 78t-50 24zM518 330v-49h-82v-78h96v-49h-155v297h155v-52h-96v-69h82zM203 150q-47 0 -74 4v292q61 9 76 9q67 0 96 -37.5t29 -116.5t-29.5 -115t-97.5 -36zM586 451h80l39 -164l38 164h82
q3 -45 13 -297h-60q0 108 -6 213l-41 -168h-55l-41 168h-2q-4 -140 -4 -213h-58q3 156 15 297zM987 150q-60 0 -84 35.5t-24 115.5q0 81 24 117.5t84 36.5t85.5 -37t25.5 -117q0 -79 -25.5 -115t-85.5 -36zM987 403q-29 0 -39 -23.5t-10 -78.5q0 -54 10 -78t39 -24
q30 0 40.5 24t10.5 78q0 55 -10 78.5t-41 23.5zM967 1016q49 0 79.5 -24.5t39 -51t8.5 -53.5q0 -43 -34.5 -72.5t-72.5 -34.5q-213 -23 -340 -147q3 8 9 22t25 53.5t39 75.5t50 80.5t59.5 76t66 53.5t71.5 22zM285 909q39 0 78 -21t69.5 -55t58.5 -74.5t48 -81.5t35 -75
t22 -55l8 -21q-117 148 -319 148q-49 0 -88 30t-39 76q0 53 33.5 91t93.5 38zM643 1214q38 -37 48.5 -102t-2.5 -131t-31.5 -126.5t-35.5 -98.5l-18 -39q20 191 -125 330q-35 35 -42 81.5t24 83.5q23 23 53 34t65 3.5t64 -35.5z" />
    <glyph glyph-name="underscore" unicode="_" 
d="M207 403q-13 0 -19 -2v-200q4 -2 19 -2q37 0 50 25t13 77q0 54 -13 78t-50 24zM518 330v-49h-82v-78h96v-49h-155v297h155v-52h-96v-69h82zM203 150q-47 0 -74 4v292q61 9 76 9q67 0 96 -37.5t29 -116.5t-29.5 -115t-97.5 -36zM586 451h80l39 -164l38 164h82
q3 -45 13 -297h-60q0 108 -6 213l-41 -168h-55l-41 168h-2q-4 -140 -4 -213h-58q3 156 15 297zM987 150q-60 0 -84 35.5t-24 115.5q0 81 24 117.5t84 36.5t85.5 -37t25.5 -117q0 -79 -25.5 -115t-85.5 -36zM987 403q-29 0 -39 -23.5t-10 -78.5q0 -54 10 -78t39 -24
q30 0 40.5 24t10.5 78q0 55 -10 78.5t-41 23.5zM967 1016q49 0 79.5 -24.5t39 -51t8.5 -53.5q0 -43 -34.5 -72.5t-72.5 -34.5q-213 -23 -340 -147q3 8 9 22t25 53.5t39 75.5t50 80.5t59.5 76t66 53.5t71.5 22zM285 909q39 0 78 -21t69.5 -55t58.5 -74.5t48 -81.5t35 -75
t22 -55l8 -21q-117 148 -319 148q-49 0 -88 30t-39 76q0 53 33.5 91t93.5 38zM643 1214q38 -37 48.5 -102t-2.5 -131t-31.5 -126.5t-35.5 -98.5l-18 -39q20 191 -125 330q-35 35 -42 81.5t24 83.5q23 23 53 34t65 3.5t64 -35.5z" />
    <glyph glyph-name="grave" unicode="`" 
d="M207 403q-13 0 -19 -2v-200q4 -2 19 -2q37 0 50 25t13 77q0 54 -13 78t-50 24zM518 330v-49h-82v-78h96v-49h-155v297h155v-52h-96v-69h82zM203 150q-47 0 -74 4v292q61 9 76 9q67 0 96 -37.5t29 -116.5t-29.5 -115t-97.5 -36zM586 451h80l39 -164l38 164h82
q3 -45 13 -297h-60q0 108 -6 213l-41 -168h-55l-41 168h-2q-4 -140 -4 -213h-58q3 156 15 297zM987 150q-60 0 -84 35.5t-24 115.5q0 81 24 117.5t84 36.5t85.5 -37t25.5 -117q0 -79 -25.5 -115t-85.5 -36zM987 403q-29 0 -39 -23.5t-10 -78.5q0 -54 10 -78t39 -24
q30 0 40.5 24t10.5 78q0 55 -10 78.5t-41 23.5zM967 1016q49 0 79.5 -24.5t39 -51t8.5 -53.5q0 -43 -34.5 -72.5t-72.5 -34.5q-213 -23 -340 -147q3 8 9 22t25 53.5t39 75.5t50 80.5t59.5 76t66 53.5t71.5 22zM285 909q39 0 78 -21t69.5 -55t58.5 -74.5t48 -81.5t35 -75
t22 -55l8 -21q-117 148 -319 148q-49 0 -88 30t-39 76q0 53 33.5 91t93.5 38zM643 1214q38 -37 48.5 -102t-2.5 -131t-31.5 -126.5t-35.5 -98.5l-18 -39q20 191 -125 330q-35 35 -42 81.5t24 83.5q23 23 53 34t65 3.5t64 -35.5z" />
    <glyph glyph-name="a" unicode="a" horiz-adv-x="1368" 
d="M1096 913l30 152h213l-188 -1065h-205l25 176q-81 -102 -193.5 -154.5t-242.5 -52.5q-216 0 -337.5 129t-121.5 344q0 175 81.5 325t226 239.5t318.5 89.5q156 0 263.5 -74.5t158.5 -216.5zM598 160q192 0 316 127.5t124 310.5q0 141 -81.5 224t-229.5 83
q-126 0 -226.5 -59t-155 -159t-54.5 -220q0 -143 80 -225t227 -82z" />
    <glyph glyph-name="b" unicode="b" horiz-adv-x="1378" 
d="M674 -31q-138 0 -237 59t-140 165l-45 -193h-213l256 1454h217l-90 -526l-64 -111q183 279 490 279q214 0 333 -129t119 -344q0 -133 -47.5 -253t-129.5 -208.5t-199 -140.5t-250 -52zM645 160q191 0 315.5 128.5t124.5 309.5q0 141 -81.5 224t-229.5 83
q-189 0 -312.5 -127t-123.5 -311q0 -143 80.5 -225t226.5 -82z" />
    <glyph glyph-name="c" unicode="c" horiz-adv-x="1286" 
d="M588 -31q-245 0 -377.5 133t-132.5 349q0 133 50.5 251.5t138.5 205.5t214.5 137.5t270.5 50.5q225 0 351.5 -115.5t123.5 -300.5h-205q-14 112 -92 167.5t-197 55.5q-133 0 -236 -62t-155.5 -160.5t-52.5 -213.5q0 -146 84.5 -225.5t236.5 -79.5q126 0 216.5 57
t138.5 162h213q-67 -194 -220 -303t-370 -109z" />
    <glyph glyph-name="d" unicode="d" horiz-adv-x="1380" 
d="M1096 913l96 541h217l-258 -1454h-205l25 176q-81 -102 -193.5 -154.5t-242.5 -52.5q-216 0 -337.5 129t-121.5 344q0 175 81.5 325t226 239.5t318.5 89.5q156 0 263.5 -74.5t158.5 -216.5zM598 160q192 0 316 127.5t124 310.5q0 141 -81.5 224t-229.5 83
q-126 0 -226.5 -59t-155 -159t-54.5 -220q0 -143 80 -225t227 -82z" />
    <glyph glyph-name="e" unicode="e" horiz-adv-x="1310" 
d="M750 1096q183 0 304 -75t164 -218t-6 -350h-919q6 -312 325 -312q217 0 318 148h213q-78 -152 -221 -236t-340 -84q-248 0 -379 129.5t-131 350.5q0 134 48 252t134 205.5t213 138.5t277 51zM309 606h723q15 324 -297 324q-170 0 -279.5 -89.5t-146.5 -234.5z" />
    <glyph glyph-name="f" unicode="f" horiz-adv-x="929" 
d="M997 1327h-168q-91 0 -140 -45.5t-64 -136.5l-15 -80h342l-34 -186h-340l-156 -879h-217l155 879h-229l35 186h227l17 94q31 172 124 259t277 87h219z" />
    <glyph glyph-name="g" unicode="g" horiz-adv-x="1361" 
d="M492 -340q-137 0 -247 27t-157 69l29 156q51 -35 146 -57.5t220 -22.5q412 0 465 293l13 68l20 75q-80 -118 -201.5 -172.5t-259.5 -54.5q-208 0 -323 115.5t-115 314.5q0 123 46.5 237.5t126.5 200t195.5 136.5t245.5 51q308 0 398 -275l-17 90l35 154h209l-164 -934
q-22 -124 -81 -216.5t-148.5 -147t-197.5 -81t-238 -26.5zM594 215q184 0 308 120t124 288q0 132 -81 211t-226 79q-182 0 -301 -119.5t-119 -291.5q0 -132 75.5 -209.5t219.5 -77.5z" />
    <glyph glyph-name="h" unicode="h" horiz-adv-x="1359" 
d="M852 1096q230 0 328 -131t57 -363l-107 -602h-217l101 569q62 334 -266 334q-330 0 -392 -334l-100 -569h-217l256 1454h217l-88 -553h-6l-17 -35q158 230 451 230z" />
    <glyph glyph-name="i" unicode="i" horiz-adv-x="497" 
d="M401 1290q-56 0 -89 34t-33 81q0 48 33 82.5t89 34.5q57 0 91 -34.5t34 -82.5q0 -47 -34 -81t-91 -34zM262 0h-217l188 1065h218z" />
    <glyph glyph-name="j" unicode="j" horiz-adv-x="497" 
d="M401 1290q-56 0 -89 34t-33 81q0 48 33 82.5t89 34.5q57 0 91 -34.5t34 -82.5q0 -47 -34 -81t-91 -34zM207 -317h-217l243 1382h218z" />
    <glyph glyph-name="k" unicode="k" horiz-adv-x="1337" 
d="M1094 1065h264l-537 -514l402 -551h-248l-299 410l-426 -410h-211l256 1454h217l-174 -1001l-35 -162h4l154 160z" />
    <glyph glyph-name="l" unicode="l" horiz-adv-x="485" 
d="M256 0h-217l256 1454h217z" />
    <glyph glyph-name="m" unicode="m" horiz-adv-x="2168" 
d="M1673 1096q231 0 321.5 -135t49.5 -367l-105 -594h-217l103 575q57 324 -240 324q-161 0 -260.5 -95t-132.5 -274l-94 -530h-217l102 575q27 154 -33 239t-213 85q-309 0 -383 -346l-98 -553h-217l188 1065h211l-20 -164l-35 -67q161 262 453 262q158 0 250.5 -69.5
t117.5 -195.5q152 265 469 265z" />
    <glyph glyph-name="n" unicode="n" horiz-adv-x="1359" 
d="M256 0h-217l188 1065h209l-18 -164l-17 -35q158 230 451 230q230 0 328 -131t57 -363l-107 -602h-217l101 569q62 334 -266 334q-330 0 -392 -334z" />
    <glyph glyph-name="o" unicode="o" horiz-adv-x="1327" 
d="M578 -31q-238 0 -369 132.5t-131 349.5q0 132 51 251t139.5 205.5t214 137.5t267.5 51q238 0 368.5 -132.5t130.5 -349.5q0 -132 -51 -251t-139 -205.5t-213.5 -137.5t-267.5 -51zM600 162q191 0 312.5 127.5t121.5 308.5q0 140 -79.5 222.5t-227.5 82.5
q-191 0 -312.5 -127.5t-121.5 -308.5q0 -140 79.5 -222.5t227.5 -82.5z" />
    <glyph glyph-name="p" unicode="p" horiz-adv-x="1378" 
d="M203 -295h-215l239 1360h217l-22 -137l-66 -111q186 279 492 279q211 0 331.5 -129.5t120.5 -343.5q0 -178 -80.5 -328t-222.5 -238t-315 -88q-141 0 -243.5 60t-145.5 166zM651 160q127 0 227 60t153.5 159.5t53.5 218.5q0 144 -82.5 225.5t-232.5 81.5
q-190 0 -311 -126.5t-121 -311.5q0 -145 82.5 -226t230.5 -81z" />
    <glyph glyph-name="q" unicode="q" horiz-adv-x="1378" 
d="M1096 913l30 152h213l-239 -1360h-211l82 471q-81 -102 -193.5 -154.5t-242.5 -52.5q-216 0 -337.5 129t-121.5 344q0 175 81.5 325t226 239.5t318.5 89.5q156 0 263.5 -74.5t158.5 -216.5zM598 160q192 0 316 127.5t124 310.5q0 141 -81.5 224t-229.5 83
q-126 0 -226.5 -59t-155 -159t-54.5 -220q0 -143 80 -225t227 -82z" />
    <glyph glyph-name="r" unicode="r" horiz-adv-x="1204" 
d="M256 0h-217l188 1065h211l-20 -150l-43 -90q81 135 184 203t252 68q191 0 271.5 -110t45.5 -296l-14 -76h-201l7 35q45 256 -211 256q-150 0 -236.5 -87.5t-112.5 -235.5z" />
    <glyph glyph-name="s" unicode="s" horiz-adv-x="1204" 
d="M496 -31q-84 0 -151 8.5t-128 31.5t-99.5 59t-57 93.5t-9.5 133.5h193q2 -83 67 -120.5t215 -37.5q334 0 334 180q0 63 -40 90t-130 35l-231 21q-163 14 -242.5 78.5t-79.5 189.5q0 124 70.5 207t191 120.5t285.5 37.5q109 0 191.5 -16.5t145 -53.5t90.5 -102t17 -156
h-192q-2 82 -60.5 122t-207.5 40q-312 0 -312 -174q0 -61 43 -91t133 -38l232 -21q169 -15 244 -75t75 -185q0 -99 -43.5 -172.5t-123.5 -117.5t-185 -65.5t-235 -21.5z" />
    <glyph glyph-name="t" unicode="t" horiz-adv-x="950" 
d="M926 879h-344l-90 -514q-15 -94 17 -137.5t128 -43.5h168l-37 -194h-193q-192 0 -263 91.5t-40 264.5l95 533h-236l35 186h231l66 369h217l-66 -369h344z" />
    <glyph glyph-name="u" unicode="u" horiz-adv-x="1359" 
d="M1104 1065h217l-188 -1065h-209l18 164l16 35q-158 -230 -450 -230q-230 0 -328 131t-57 363l106 602h217l-100 -569q-62 -334 266 -334q330 0 392 334z" />
    <glyph glyph-name="v" unicode="v" horiz-adv-x="1265" 
d="M659 0h-225l-299 1065h219l224 -821h8l504 821h229z" />
    <glyph glyph-name="w" unicode="w" horiz-adv-x="1972" 
d="M571 0h-237l-199 1065h219l144 -829l469 829h223l180 -829l430 829h225l-567 -1065h-235l-185 829z" />
    <glyph glyph-name="x" unicode="x" horiz-adv-x="1255" 
d="M219 0h-262l549 537l-348 528h245l246 -375l385 375h258l-536 -528l354 -537h-248l-250 385z" />
    <glyph glyph-name="y" unicode="y" horiz-adv-x="1277" 
d="M473 -295h-225l190 303l-303 1057h225l224 -821h8l510 821h229z" />
    <glyph glyph-name="z" unicode="z" horiz-adv-x="1183" 
d="M1008 0h-1006l31 186l839 693h-696l33 186h977l-31 -186l-840 -693h727z" />
    <glyph glyph-name="braceleft" unicode="{" 
d="M207 403q-13 0 -19 -2v-200q4 -2 19 -2q37 0 50 25t13 77q0 54 -13 78t-50 24zM518 330v-49h-82v-78h96v-49h-155v297h155v-52h-96v-69h82zM203 150q-47 0 -74 4v292q61 9 76 9q67 0 96 -37.5t29 -116.5t-29.5 -115t-97.5 -36zM586 451h80l39 -164l38 164h82
q3 -45 13 -297h-60q0 108 -6 213l-41 -168h-55l-41 168h-2q-4 -140 -4 -213h-58q3 156 15 297zM987 150q-60 0 -84 35.5t-24 115.5q0 81 24 117.5t84 36.5t85.5 -37t25.5 -117q0 -79 -25.5 -115t-85.5 -36zM987 403q-29 0 -39 -23.5t-10 -78.5q0 -54 10 -78t39 -24
q30 0 40.5 24t10.5 78q0 55 -10 78.5t-41 23.5zM967 1016q49 0 79.5 -24.5t39 -51t8.5 -53.5q0 -43 -34.5 -72.5t-72.5 -34.5q-213 -23 -340 -147q3 8 9 22t25 53.5t39 75.5t50 80.5t59.5 76t66 53.5t71.5 22zM285 909q39 0 78 -21t69.5 -55t58.5 -74.5t48 -81.5t35 -75
t22 -55l8 -21q-117 148 -319 148q-49 0 -88 30t-39 76q0 53 33.5 91t93.5 38zM643 1214q38 -37 48.5 -102t-2.5 -131t-31.5 -126.5t-35.5 -98.5l-18 -39q20 191 -125 330q-35 35 -42 81.5t24 83.5q23 23 53 34t65 3.5t64 -35.5z" />
    <glyph glyph-name="bar" unicode="|" 
d="M207 403q-13 0 -19 -2v-200q4 -2 19 -2q37 0 50 25t13 77q0 54 -13 78t-50 24zM518 330v-49h-82v-78h96v-49h-155v297h155v-52h-96v-69h82zM203 150q-47 0 -74 4v292q61 9 76 9q67 0 96 -37.5t29 -116.5t-29.5 -115t-97.5 -36zM586 451h80l39 -164l38 164h82
q3 -45 13 -297h-60q0 108 -6 213l-41 -168h-55l-41 168h-2q-4 -140 -4 -213h-58q3 156 15 297zM987 150q-60 0 -84 35.5t-24 115.5q0 81 24 117.5t84 36.5t85.5 -37t25.5 -117q0 -79 -25.5 -115t-85.5 -36zM987 403q-29 0 -39 -23.5t-10 -78.5q0 -54 10 -78t39 -24
q30 0 40.5 24t10.5 78q0 55 -10 78.5t-41 23.5zM967 1016q49 0 79.5 -24.5t39 -51t8.5 -53.5q0 -43 -34.5 -72.5t-72.5 -34.5q-213 -23 -340 -147q3 8 9 22t25 53.5t39 75.5t50 80.5t59.5 76t66 53.5t71.5 22zM285 909q39 0 78 -21t69.5 -55t58.5 -74.5t48 -81.5t35 -75
t22 -55l8 -21q-117 148 -319 148q-49 0 -88 30t-39 76q0 53 33.5 91t93.5 38zM643 1214q38 -37 48.5 -102t-2.5 -131t-31.5 -126.5t-35.5 -98.5l-18 -39q20 191 -125 330q-35 35 -42 81.5t24 83.5q23 23 53 34t65 3.5t64 -35.5z" />
    <glyph glyph-name="braceright" unicode="}" 
d="M207 403q-13 0 -19 -2v-200q4 -2 19 -2q37 0 50 25t13 77q0 54 -13 78t-50 24zM518 330v-49h-82v-78h96v-49h-155v297h155v-52h-96v-69h82zM203 150q-47 0 -74 4v292q61 9 76 9q67 0 96 -37.5t29 -116.5t-29.5 -115t-97.5 -36zM586 451h80l39 -164l38 164h82
q3 -45 13 -297h-60q0 108 -6 213l-41 -168h-55l-41 168h-2q-4 -140 -4 -213h-58q3 156 15 297zM987 150q-60 0 -84 35.5t-24 115.5q0 81 24 117.5t84 36.5t85.5 -37t25.5 -117q0 -79 -25.5 -115t-85.5 -36zM987 403q-29 0 -39 -23.5t-10 -78.5q0 -54 10 -78t39 -24
q30 0 40.5 24t10.5 78q0 55 -10 78.5t-41 23.5zM967 1016q49 0 79.5 -24.5t39 -51t8.5 -53.5q0 -43 -34.5 -72.5t-72.5 -34.5q-213 -23 -340 -147q3 8 9 22t25 53.5t39 75.5t50 80.5t59.5 76t66 53.5t71.5 22zM285 909q39 0 78 -21t69.5 -55t58.5 -74.5t48 -81.5t35 -75
t22 -55l8 -21q-117 148 -319 148q-49 0 -88 30t-39 76q0 53 33.5 91t93.5 38zM643 1214q38 -37 48.5 -102t-2.5 -131t-31.5 -126.5t-35.5 -98.5l-18 -39q20 191 -125 330q-35 35 -42 81.5t24 83.5q23 23 53 34t65 3.5t64 -35.5z" />
    <glyph glyph-name="asciitilde" unicode="~" 
d="M207 403q-13 0 -19 -2v-200q4 -2 19 -2q37 0 50 25t13 77q0 54 -13 78t-50 24zM518 330v-49h-82v-78h96v-49h-155v297h155v-52h-96v-69h82zM203 150q-47 0 -74 4v292q61 9 76 9q67 0 96 -37.5t29 -116.5t-29.5 -115t-97.5 -36zM586 451h80l39 -164l38 164h82
q3 -45 13 -297h-60q0 108 -6 213l-41 -168h-55l-41 168h-2q-4 -140 -4 -213h-58q3 156 15 297zM987 150q-60 0 -84 35.5t-24 115.5q0 81 24 117.5t84 36.5t85.5 -37t25.5 -117q0 -79 -25.5 -115t-85.5 -36zM987 403q-29 0 -39 -23.5t-10 -78.5q0 -54 10 -78t39 -24
q30 0 40.5 24t10.5 78q0 55 -10 78.5t-41 23.5zM967 1016q49 0 79.5 -24.5t39 -51t8.5 -53.5q0 -43 -34.5 -72.5t-72.5 -34.5q-213 -23 -340 -147q3 8 9 22t25 53.5t39 75.5t50 80.5t59.5 76t66 53.5t71.5 22zM285 909q39 0 78 -21t69.5 -55t58.5 -74.5t48 -81.5t35 -75
t22 -55l8 -21q-117 148 -319 148q-49 0 -88 30t-39 76q0 53 33.5 91t93.5 38zM643 1214q38 -37 48.5 -102t-2.5 -131t-31.5 -126.5t-35.5 -98.5l-18 -39q20 191 -125 330q-35 35 -42 81.5t24 83.5q23 23 53 34t65 3.5t64 -35.5z" />
    </font>
</defs>
</svg>
